<?xml version="1.0" encoding="UTF-8" standalone="no"?>
<!DOCTYPE svg PUBLIC "-//W3C//DTD SVG 1.1//EN" "http://www.w3.org/Graphics/SVG/1.1/DTD/svg11.dtd">
<svg xmlns:dc="http://purl.org/dc/elements/1.1/" xmlns:xl="http://www.w3.org/1999/xlink" version="1.1" xmlns="http://www.w3.org/2000/svg" viewBox="82 115 153 149" width="153" height="149">
  <defs>
    <filter id="Shadow" filterUnits="userSpaceOnUse" x="66.7" y="100.1">
      <feGaussianBlur in="SourceAlpha" result="blur" stdDeviation="1.308"/>
      <feOffset in="blur" result="offset" dx="0" dy="2"/>
      <feFlood flood-color="black" flood-opacity=".5" result="flood"/>
      <feComposite in="flood" in2="offset" operator="in"/>
    </filter>
    <marker orient="auto" overflow="visible" markerUnits="strokeWidth" id="FilledArrow_Marker" stroke-linejoin="miter" stroke-miterlimit="10" viewBox="-1 -2 4 4" markerWidth="4" markerHeight="4" color="#942093">
      <g>
        <path d="M 2 0 L 0 -.75 L 0 .75 Z" fill="currentColor" stroke="currentColor" stroke-width="1"/>
      </g>
    </marker>
    <marker orient="auto" overflow="visible" markerUnits="strokeWidth" id="FilledArrow_Marker_2" stroke-linejoin="miter" stroke-miterlimit="10" viewBox="-1 -2 4 4" markerWidth="4" markerHeight="4" color="#4e8f00">
      <g>
        <path d="M 2 0 L 0 -.75 L 0 .75 Z" fill="currentColor" stroke="currentColor" stroke-width="1"/>
      </g>
    </marker>
  </defs>
  <g id="版面____-__-1" stroke-dasharray="none" fill="none" stroke="none" stroke-opacity="1" fill-opacity="1">
    <title>整个装置-无偏角</title>
    <rect fill="white" x="82" y="115" width="153" height="149"/>
    <g id="版面____-__-1_平衡状态">
      <title>平衡状态</title>
      <g id="Line_38_shadow" filter="url(#Shadow)">
        <line x1="152.09633" y1="147.73935" x2="166.00033" y2="147.86137" stroke="black" stroke-opacity=".104845" stroke-linecap="round" stroke-linejoin="round" stroke-width="1"/>
      </g>
      <g id="Line_39_shadow" filter="url(#Shadow)">
        <line x1="152.09633" y1="147.73935" x2="133.99975" y2="147.87851" stroke="black" stroke-opacity=".104845" stroke-linecap="round" stroke-linejoin="round" stroke-width="1"/>
      </g>
      <g id="Line_41_shadow" filter="url(#Shadow)">
        <line x1="152.83742" y1="242.66687" x2="152.09633" y2="147.73935" stroke="black" stroke-opacity=".104845" stroke-linecap="round" stroke-linejoin="round" stroke-width="1"/>
      </g>
      <g id="Group_233">
        <g id="Line_41">
          <line x1="152.83742" y1="242.66687" x2="152.09633" y2="147.73935" stroke="black" stroke-opacity=".104845" stroke-linecap="round" stroke-linejoin="round" stroke-width="1"/>
        </g>
        <g id="Graphic_40">
          <ellipse cx="181.79817" cy="148" rx="15.7981903815327" ry="21.0000335559398" fill="white"/>
          <ellipse cx="181.79817" cy="148" rx="15.7981903815327" ry="21.0000335559398" stroke="black" stroke-opacity=".104845" stroke-linecap="round" stroke-linejoin="round" stroke-width="1"/>
        </g>
        <g id="Line_39">
          <line x1="152.09633" y1="147.73935" x2="133.99975" y2="147.87851" stroke="black" stroke-opacity=".104845" stroke-linecap="round" stroke-linejoin="round" stroke-width="1"/>
        </g>
        <g id="Line_38">
          <line x1="152.09633" y1="147.73935" x2="166.00033" y2="147.86137" stroke="black" stroke-opacity=".104845" stroke-linecap="round" stroke-linejoin="round" stroke-width="1"/>
        </g>
        <g id="Graphic_37">
          <ellipse cx="118.20183" cy="148" rx="15.7981903815327" ry="21.0000335559398" fill="white"/>
          <ellipse cx="118.20183" cy="148" rx="15.7981903815327" ry="21.0000335559398" stroke="black" stroke-opacity=".104845" stroke-linecap="round" stroke-linejoin="round" stroke-width="1"/>
        </g>
      </g>
    </g>
    <g id="版面____-__-1_偏移状态">
      <title>偏移状态</title>
      <g id="Line_17_shadow" filter="url(#Shadow)">
        <line x1="165.32502" y1="148.47427" x2="179.69048" y2="150.4932" stroke="black" stroke-linecap="round" stroke-linejoin="round" stroke-width="1"/>
      </g>
      <g id="Line_16_shadow" filter="url(#Shadow)">
        <line x1="165.32502" y1="148.47427" x2="147.5002" y2="145.96916" stroke="black" stroke-linecap="round" stroke-linejoin="round" stroke-width="1"/>
      </g>
      <g id="Line_13_shadow" filter="url(#Shadow)">
        <line x1="152.84754" y1="242.5811" x2="165.32502" y2="148.47427" stroke="black" stroke-linecap="round" stroke-linejoin="round" stroke-width="1"/>
      </g>
      <g id="Line_30">
        <line x1="152.84754" y1="242.5811" x2="153" y2="116" stroke="#666" stroke-linecap="round" stroke-linejoin="round" stroke-dasharray="2.0,2.0" stroke-width=".5"/>
      </g>
      <g id="Group_29">
        <g id="Line_13">
          <line x1="152.84754" y1="242.5811" x2="165.32502" y2="148.47427" stroke="black" stroke-linecap="round" stroke-linejoin="round" stroke-width="1"/>
        </g>
        <g id="Graphic_15">
          <path d="M 208.46378 139.54187 C 213.43198 148.5217 211.58147 161.68875 204.33056 168.9513 C 197.07967 176.2139 187.1742 174.82177 182.20603 165.8419 C 177.23784 156.86207 179.08835 143.69502 186.33926 136.43247 C 193.59015 129.16987 203.49563 130.562 208.46378 139.54187" fill="white"/>
          <path d="M 208.46378 139.54187 C 213.43198 148.5217 211.58147 161.68875 204.33056 168.9513 C 197.07967 176.2139 187.1742 174.82177 182.20603 165.8419 C 177.23784 156.86207 179.08835 143.69502 186.33926 136.43247 C 193.59015 129.16987 203.49563 130.562 208.46378 139.54187" stroke="black" stroke-linecap="round" stroke-linejoin="round" stroke-width="1"/>
        </g>
        <g id="Line_16">
          <line x1="165.32502" y1="148.47427" x2="147.5002" y2="145.96916" stroke="black" stroke-linecap="round" stroke-linejoin="round" stroke-width="1"/>
        </g>
        <g id="Line_17">
          <line x1="165.32502" y1="148.47427" x2="179.69048" y2="150.4932" stroke="black" stroke-linecap="round" stroke-linejoin="round" stroke-width="1"/>
        </g>
        <g id="Graphic_14">
          <path d="M 144.98465 130.62046 C 149.95284 139.6003 148.10234 152.76734 140.85143 160.02989 C 133.60054 167.29249 123.69506 165.90036 118.7269 156.92049 C 113.75871 147.94066 115.60922 134.77361 122.86013 127.51106 C 130.11101 120.24846 140.0165 121.64059 144.98465 130.62046" fill="white"/>
          <path d="M 144.98465 130.62046 C 149.95284 139.6003 148.10234 152.76734 140.85143 160.02989 C 133.60054 167.29249 123.69506 165.90036 118.7269 156.92049 C 113.75871 147.94066 115.60922 134.77361 122.86013 127.51106 C 130.11101 120.24846 140.0165 121.64059 144.98465 130.62046" stroke="black" stroke-linecap="round" stroke-linejoin="round" stroke-width="1"/>
        </g>
      </g>
      <g id="Line_21">
        <line x1="234" y1="243" x2="83" y2="242.92752" stroke="#00aeef" stroke-linecap="square" stroke-linejoin="bevel" stroke-dasharray="8.0,8.0" stroke-width="2"/>
      </g>
    </g>
    <g id="版面____-__-1_F{o}_">
      <title>F{o} </title>
      <g id="Line_143">
        <line x1="152.84754" y1="242.5811" x2="134.54331" y2="260.50898" marker-end="url(#FilledArrow_Marker)" stroke="#942093" stroke-linecap="round" stroke-linejoin="round" stroke-width=".9"/>
      </g>
      <g id="Line_142">
        <line x1="152.84754" y1="242.5811" x2="191.13284" y2="242.96436" marker-end="url(#FilledArrow_Marker)" stroke="#942093" stroke-linecap="round" stroke-linejoin="round" stroke-width=".9"/>
      </g>
      <g id="Line_141">
        <line x1="152.84754" y1="242.5811" x2="152.84754" y2="205.56" marker-end="url(#FilledArrow_Marker)" stroke="#942093" stroke-linecap="round" stroke-linejoin="round" stroke-width=".9"/>
      </g>
      <g id="Group_232">
        <g id="Group_229">
          <g id="Group_230">
            <title>glyph-0-0</title>
            <g id="Graphic_231">
              <path d="M 157.26536 235.79739 C 157.26536 235.55686 157.42222 235.17255 158.07582 235.13072 C 158.10719 235.1255 158.13072 235.10196 158.13072 235.06536 C 158.13072 235 158.08366 235 158.01569 235 C 157.417 235 156.87059 235.30588 156.86536 235.75033 L 156.86536 237.11765 C 156.86536 237.35033 156.86536 237.5438 156.62484 237.74248 C 156.41569 237.91503 156.18562 237.9281 156.0549 237.93333 C 156.02353 237.93856 156 237.9621 156 237.9987 C 156 238.05882 156.0366 238.05882 156.09673 238.06405 C 156.4915 238.0902 156.7817 238.30458 156.84706 238.6 C 156.86536 238.66536 156.86536 238.67843 156.86536 238.8928 L 156.86536 240.08235 C 156.86536 240.33333 156.86536 240.52418 157.15294 240.75425 C 157.38562 240.93464 157.783 241 158.01569 241 C 158.08366 241 158.13072 241 158.13072 240.93464 C 158.13072 240.8745 158.09412 240.8745 158.03399 240.86667 C 157.65752 240.84314 157.3621 240.6523 157.28366 240.3464 C 157.26536 240.2915 157.26536 240.27843 157.26536 240.06405 L 157.26536 238.80392 C 157.26536 238.5268 157.2183 238.42484 157.02745 238.234 C 156.89935 238.1085 156.7268 238.04837 156.55948 237.9987 C 157.05098 237.86013 157.26536 237.58562 157.26536 237.2379 L 157.26536 235.79739" fill="#942093"/>
            </g>
          </g>
        </g>
        <g id="Group_226">
          <g id="Group_227">
            <title>glyph-1-0</title>
            <g id="Graphic_228">
              <path d="M 161.82184 238.19216 C 161.82184 237.38693 161.2702 236.7804 160.29243 236.7804 C 159.3068 236.7804 158.7604 237.39216 158.7604 238.19216 C 158.7604 238.93464 159.2885 239.53595 160.29243 239.53595 C 161.29896 239.53595 161.82184 238.9294 161.82184 238.19216 M 160.29243 239.29542 C 159.52903 239.29542 159.52903 238.64706 159.52903 238.12418 C 159.52903 237.8549 159.52903 237.54902 159.63099 237.3451 C 159.74602 237.12288 159.997 236.99739 160.29243 236.99739 C 160.5434 236.99739 160.79439 237.09412 160.92772 237.30327 C 161.05321 237.5072 161.05321 237.8366 161.05321 238.12418 C 161.05321 238.64706 161.05321 239.29542 160.29243 239.29542" fill="#942093"/>
            </g>
          </g>
        </g>
        <g id="Group_223">
          <g id="Group_224">
            <title>glyph-0-1</title>
            <g id="Graphic_225">
              <path d="M 163.31656 240.20261 C 163.31656 240.44052 163.1597 240.82484 162.5061 240.86667 C 162.47473 240.8745 162.4512 240.89804 162.4512 240.93464 C 162.4512 241 162.51656 241 162.57146 241 C 163.15447 241 163.71133 240.70458 163.71656 240.24967 L 163.71656 238.88235 C 163.71656 238.64706 163.71656 238.4562 163.95708 238.25752 C 164.16885 238.08235 164.3963 238.0719 164.52702 238.06405 C 164.55839 238.05882 164.58192 238.0353 164.58192 237.9987 C 164.58192 237.93856 164.54532 237.93856 164.48519 237.93333 C 164.09042 237.9098 163.80283 237.6928 163.73486 237.4 C 163.71656 237.33464 163.71656 237.32157 163.71656 237.10458 L 163.71656 235.91765 C 163.71656 235.66405 163.71656 235.4732 163.42898 235.24575 C 163.19107 235.06013 162.77538 235 162.57146 235 C 162.51656 235 162.4512 235 162.4512 235.06536 C 162.4512 235.1255 162.4878 235.1255 162.54793 235.13072 C 162.92702 235.15425 163.21983 235.3477 163.29826 235.6536 C 163.31656 235.7085 163.31656 235.71895 163.31656 235.93595 L 163.31656 237.19608 C 163.31656 237.4706 163.36362 237.57255 163.55708 237.766 C 163.68257 237.8915 163.85512 237.95163 164.02506 237.9987 C 163.53094 238.13725 163.31656 238.41438 163.31656 238.7621 L 163.31656 240.20261" fill="#942093"/>
            </g>
          </g>
        </g>
      </g>
      <g id="Group_116">
        <g id="Group_123">
          <g id="Group_124">
            <title>glyph-0-0</title>
            <g id="Graphic_125">
              <path d="M 132.31917 254.99196 L 131.70494 253.53387 C 131.68197 253.47646 131.6705 253.44776 131.6705 253.44202 C 131.6705 253.3961 131.79679 253.25832 132.10103 253.22962 C 132.17566 253.21814 132.25029 253.2124 132.25029 253.0861 C 132.25029 253 132.15844 253 132.13548 253 C 131.83697 253 131.52124 253.02296 131.21699 253.02296 C 131.0333 253.02296 130.5798 253 130.3961 253 C 130.35017 253 130.26406 253 130.26406 253.14925 C 130.26406 253.22962 130.33869 253.22962 130.43054 253.22962 C 130.87256 253.22962 130.91848 253.2985 130.98163 253.46498 L 131.84271 255.50287 L 130.2985 257.16762 L 130.20666 257.248 C 129.845 257.6326 129.50057 257.75316 129.12744 257.77038 C 129.03559 257.78186 128.9667 257.78186 128.9667 257.91963 C 128.9667 257.92537 128.9667 258 129.0643 258 C 129.28243 258 129.52354 257.97704 129.75316 257.97704 C 130.02296 257.97704 130.30999 258 130.57405 258 C 130.61424 258 130.70608 258 130.70608 257.8565 C 130.70608 257.78186 130.63146 257.77038 130.61424 257.77038 C 130.55109 257.76464 130.32147 257.75316 130.32147 257.5465 C 130.32147 257.4317 130.43054 257.31114 130.52239 257.2193 L 131.26866 256.4271 L 131.92882 255.70953 L 132.6636 257.4604 C 132.6923 257.54076 132.70379 257.5465 132.70379 257.56372 C 132.70379 257.62113 132.56028 257.74168 132.27899 257.77038 C 132.19862 257.78186 132.12974 257.7876 132.12974 257.9139 C 132.12974 258 132.2101 258 132.2388 258 C 132.44546 258 132.95637 257.97704 133.16303 257.97704 C 133.34673 257.97704 133.79449 258 133.97819 258 C 134.02411 258 134.11596 258 134.11596 257.86223 C 134.11596 257.77038 134.04133 257.77038 133.98393 257.77038 C 133.49024 257.76464 133.47876 257.74168 133.35247 257.4489 C 133.06544 256.77153 132.5775 255.62916 132.41102 255.18714 C 132.9047 254.67623 133.67394 253.80367 133.9093 253.60276 C 134.1217 253.4248 134.39724 253.25258 134.83927 253.22962 C 134.93685 253.21814 135 253.21814 135 253.08037 C 135 253.07463 135 253 134.90241 253 C 134.68427 253 134.44317 253.02296 134.21929 253.02296 C 133.94374 253.02296 133.6682 253 133.40413 253 C 133.35821 253 133.26636 253 133.26636 253.14925 C 133.26636 253.20092 133.3008 253.21814 133.35247 253.22962 C 133.42135 253.23536 133.64524 253.25258 133.64524 253.4535 C 133.64524 253.55683 133.56487 253.65442 133.50746 253.71757 L 132.31917 254.99196" fill="#942093"/>
            </g>
          </g>
        </g>
        <g id="Group_120">
          <g id="Group_121">
            <title>glyph-0-0</title>
            <g id="Graphic_122">
              <path d="M 190.78875 237.83812 L 190.89208 237.7348 C 191.11022 237.5109 191.35132 237.26406 191.85075 237.22962 C 191.93111 237.21814 192 237.21814 192 237.0861 C 192 237.0287 191.95982 237 191.9024 237 C 191.71297 237 191.50057 237.02296 191.29966 237.02296 C 191.05855 237.02296 190.80597 237 190.5706 237 C 190.52468 237 190.43284 237 190.43284 237.13777 C 190.43284 237.21814 190.50172 237.22962 190.5419 237.22962 C 190.59357 237.22962 190.80597 237.2411 190.80597 237.3961 C 190.80597 237.5224 190.63375 237.71183 190.60505 237.74627 L 188.90586 239.7038 L 188.10218 237.52813 C 188.062 237.4248 188.062 237.41332 188.062 237.40184 C 188.062 237.22962 188.4179 237.22962 188.49254 237.22962 C 188.59587 237.22962 188.66475 237.22962 188.66475 237.08037 C 188.66475 237 188.57865 237 188.55568 237 C 188.35476 237 187.83812 237.02296 187.6372 237.02296 C 187.4535 237.02296 187 237 186.8163 237 C 186.77038 237 186.67853 237 186.67853 237.14925 C 186.67853 237.22962 186.74742 237.22962 186.845 237.22962 C 187.28129 237.22962 187.31573 237.29277 187.37887 237.47646 L 188.28014 239.88749 C 188.28588 239.9047 188.30884 239.98507 188.30884 240.00804 C 188.30884 240.031 188.01607 241.2078 187.98163 241.33984 C 187.88404 241.74168 187.8783 241.76464 187.29277 241.77038 C 187.14925 241.77038 187.09185 241.77038 187.09185 241.91963 C 187.09185 242 187.1837 242 187.19518 242 C 187.40184 242 187.91274 241.97704 188.1194 241.97704 C 188.32032 241.97704 188.84845 242 189.0551 242 C 189.10677 242 189.19288 242 189.19288 241.8565 C 189.19288 241.77038 189.12974 241.77038 188.99196 241.77038 C 188.97474 241.77038 188.83697 241.77038 188.71068 241.7589 C 188.55568 241.74168 188.5155 241.7302 188.5155 241.6441 C 188.5155 241.59242 188.57865 241.3341 188.61309 241.1791 L 188.87141 240.1458 C 188.90586 240.00804 188.91734 239.98507 188.97474 239.92193 L 190.78875 237.83812" fill="#942093"/>
            </g>
          </g>
        </g>
        <g id="Group_117">
          <g id="Group_118">
            <title>glyph-0-0</title>
            <g id="Graphic_119">
              <path d="M 149.814 202.21355 C 149.82088 202.1791 149.84155 202.13088 149.84155 202.08266 C 149.84155 202 149.79333 202 149.62111 202 L 145.91504 202 C 145.70149 202 145.6946 202.0069 145.6395 202.1791 L 145.15729 203.7566 C 145.14351 203.80482 145.12973 203.85993 145.12973 203.8806 C 145.12973 203.88749 145.12973 203.97704 145.23995 203.97704 C 145.31573 203.97704 145.3364 203.91504 145.35017 203.88749 C 145.68771 202.8542 146.14236 202.27555 147.5132 202.27555 L 148.94603 202.27555 L 144.03444 207.76579 C 144.03444 207.77268 144 207.89667 144 207.92423 C 144 208 144.062 208 144.22044 208 L 148.03673 208 C 148.25028 208 148.25717 207.9931 148.31228 207.82778 L 148.93225 205.8852 C 148.94603 205.85075 148.97358 205.78875 148.97358 205.7543 C 148.97358 205.70608 148.93225 205.65786 148.85648 205.65786 C 148.7807 205.65786 148.76693 205.6923 148.70493 205.8714 C 148.31917 207.07003 147.89896 207.7038 146.40413 207.7038 L 144.90241 207.7038 L 149.814 202.21355" fill="#942093"/>
            </g>
          </g>
        </g>
      </g>
    </g>
    <g id="版面____-__-1_F{b2}_">
      <title>F{b2} </title>
      <g id="Line_130">
        <line x1="152.84754" y1="242.5811" x2="105.93375" y2="236.46055" marker-end="url(#FilledArrow_Marker_2)" stroke="#4e8f00" stroke-linecap="round" stroke-linejoin="round" stroke-width=".9"/>
      </g>
      <g id="Line_129">
        <line x1="152.84754" y1="242.5811" x2="200.4668" y2="248.4582" marker-end="url(#FilledArrow_Marker_2)" stroke="#4e8f00" stroke-linecap="round" stroke-linejoin="round" stroke-width=".9"/>
      </g>
      <g id="Line_128">
        <line x1="152.84754" y1="242.5811" x2="157.30985" y2="208.92594" marker-end="url(#FilledArrow_Marker_2)" stroke="#4e8f00" stroke-linecap="round" stroke-linejoin="round" stroke-width=".9"/>
      </g>
      <g id="Group_209">
        <g id="Group_197">
          <g id="Group_198">
            <title>glyph-0-0</title>
            <g id="Graphic_199">
              <path d="M 141.30034 234.79739 C 141.30034 234.55686 141.4572 234.17255 142.1108 234.13072 C 142.14217 234.1255 142.1657 234.10196 142.1657 234.06536 C 142.1657 234 142.11864 234 142.05067 234 C 141.45198 234 140.90557 234.30588 140.90034 234.75033 L 140.90034 236.11765 C 140.90034 236.35033 140.90034 236.5438 140.65982 236.74248 C 140.45067 236.91503 140.2206 236.9281 140.08989 236.93333 C 140.05851 236.93856 140.03498 236.9621 140.03498 236.9987 C 140.03498 237.05882 140.07159 237.05882 140.13172 237.06405 C 140.52649 237.0902 140.81668 237.30458 140.88204 237.6 C 140.90034 237.66536 140.90034 237.67843 140.90034 237.8928 L 140.90034 239.08235 C 140.90034 239.33333 140.90034 239.52418 141.18793 239.75425 C 141.4206 239.93464 141.81799 240 142.05067 240 C 142.11864 240 142.1657 240 142.1657 239.93464 C 142.1657 239.8745 142.1291 239.8745 142.06897 239.86667 C 141.6925 239.84314 141.39708 239.6523 141.31864 239.3464 C 141.30034 239.2915 141.30034 239.27843 141.30034 239.06405 L 141.30034 237.80392 C 141.30034 237.5268 141.25329 237.42484 141.06244 237.234 C 140.93433 237.1085 140.76178 237.04837 140.59446 236.9987 C 141.08596 236.86013 141.30034 236.58562 141.30034 236.2379 L 141.30034 234.79739" fill="#4e8f00"/>
            </g>
          </g>
        </g>
        <g id="Group_194">
          <g id="Group_195">
            <title>glyph-1-0</title>
            <g id="Graphic_196">
              <path d="M 143.8876 236.09412 L 143.8876 234.33464 L 142.82615 234.3843 L 142.82615 234.66405 C 143.1974 234.66405 143.23923 234.66405 143.23923 234.89935 L 143.23923 238.49935 L 143.52158 238.49935 L 143.817 238.1621 C 143.86406 238.21176 144.15687 238.53595 144.69282 238.53595 C 145.58694 238.53595 146.20393 237.99477 146.20393 237.16078 C 146.20393 236.3634 145.63923 235.7987 144.76864 235.7987 C 144.33204 235.7987 144.03138 235.97386 143.8876 236.09412 M 143.9242 237.90588 L 143.9242 236.4 C 144.08628 236.18824 144.37387 236.0157 144.70328 236.0157 C 145.4353 236.0157 145.4353 236.74248 145.4353 237.16078 C 145.4353 237.44314 145.4353 237.77255 145.28106 238.00784 C 145.1059 238.2536 144.82877 238.31895 144.63792 238.31895 C 144.217 238.31895 143.98432 237.99477 143.9242 237.90588" fill="#4e8f00"/>
            </g>
          </g>
        </g>
        <g id="Group_191">
          <g id="Group_192">
            <title>glyph-0-1</title>
            <g id="Graphic_193">
              <path d="M 147.73464 239.20261 C 147.73464 239.44052 147.57778 239.82484 146.92418 239.86667 C 146.89281 239.8745 146.86928 239.89804 146.86928 239.93464 C 146.86928 240 146.93464 240 146.98954 240 C 147.57255 240 148.12941 239.70458 148.13464 239.24967 L 148.13464 237.88235 C 148.13464 237.64706 148.13464 237.4562 148.37516 237.25752 C 148.58693 237.08235 148.81438 237.0719 148.9451 237.06405 C 148.97647 237.05882 149 237.0353 149 236.9987 C 149 236.93856 148.9634 236.93856 148.90327 236.93333 C 148.5085 236.9098 148.22092 236.6928 148.15294 236.4 C 148.13464 236.33464 148.13464 236.32157 148.13464 236.10458 L 148.13464 234.91765 C 148.13464 234.66405 148.13464 234.4732 147.84706 234.24575 C 147.60915 234.06013 147.19346 234 146.98954 234 C 146.93464 234 146.86928 234 146.86928 234.06536 C 146.86928 234.1255 146.90588 234.1255 146.96601 234.13072 C 147.3451 234.15425 147.6379 234.3477 147.71634 234.6536 C 147.73464 234.7085 147.73464 234.71895 147.73464 234.93595 L 147.73464 236.19608 C 147.73464 236.4706 147.7817 236.57255 147.97516 236.766 C 148.10065 236.8915 148.2732 236.95163 148.44314 236.9987 C 147.94902 237.13725 147.73464 237.41438 147.73464 237.7621 L 147.73464 239.20261" fill="#4e8f00"/>
            </g>
          </g>
        </g>
      </g>
      <g id="Group_95">
        <g id="Group_86">
          <g id="Group_87">
            <title>glyph-0-0</title>
            <g id="Graphic_88">
              <path d="M 107.35247 231.99196 L 106.73823 230.53387 C 106.71527 230.47646 106.70379 230.44776 106.70379 230.44202 C 106.70379 230.3961 106.83008 230.25832 107.13433 230.22962 C 107.20896 230.21814 107.28358 230.2124 107.28358 230.0861 C 107.28358 230 107.19173 230 107.16877 230 C 106.87026 230 106.55454 230.02296 106.25029 230.02296 C 106.06659 230.02296 105.61309 230 105.42939 230 C 105.38347 230 105.29736 230 105.29736 230.14925 C 105.29736 230.22962 105.37199 230.22962 105.46383 230.22962 C 105.90586 230.22962 105.95178 230.2985 106.01493 230.46498 L 106.876 232.50287 L 105.3318 234.16762 L 105.23995 234.248 C 104.8783 234.6326 104.53387 234.75316 104.16073 234.77038 C 104.06889 234.78186 104 234.78186 104 234.91963 C 104 234.92537 104 235 104.09759 235 C 104.31573 235 104.55683 234.97704 104.78645 234.97704 C 105.05626 234.97704 105.34328 235 105.60735 235 C 105.64753 235 105.73938 235 105.73938 234.8565 C 105.73938 234.78186 105.66475 234.77038 105.64753 234.77038 C 105.58439 234.76464 105.35476 234.75316 105.35476 234.5465 C 105.35476 234.4317 105.46383 234.31114 105.55568 234.2193 L 106.30195 233.4271 L 106.96211 232.70953 L 107.6969 234.4604 C 107.7256 234.54076 107.73708 234.5465 107.73708 234.56372 C 107.73708 234.62113 107.59357 234.74168 107.31228 234.77038 C 107.23192 234.78186 107.16303 234.7876 107.16303 234.9139 C 107.16303 235 107.2434 235 107.2721 235 C 107.47876 235 107.98967 234.97704 108.19633 234.97704 C 108.38002 234.97704 108.82778 235 109.01148 235 C 109.0574 235 109.14925 235 109.14925 234.86223 C 109.14925 234.77038 109.07463 234.77038 109.01722 234.77038 C 108.52354 234.76464 108.51206 234.74168 108.38576 234.4489 C 108.09874 233.77153 107.61079 232.62916 107.44432 232.18714 C 107.938 231.67623 108.70723 230.80367 108.9426 230.60276 C 109.155 230.4248 109.43054 230.25258 109.87256 230.22962 C 109.97015 230.21814 110.0333 230.21814 110.0333 230.08037 C 110.0333 230.07463 110.0333 230 109.9357 230 C 109.71757 230 109.47646 230.02296 109.25258 230.02296 C 108.97704 230.02296 108.70149 230 108.43743 230 C 108.3915 230 108.29966 230 108.29966 230.14925 C 108.29966 230.20092 108.3341 230.21814 108.38576 230.22962 C 108.45465 230.23536 108.67853 230.25258 108.67853 230.4535 C 108.67853 230.55683 108.59816 230.65442 108.54076 230.71757 L 107.35247 231.99196" fill="#4e8f00"/>
            </g>
          </g>
        </g>
        <g id="Group_89">
          <g id="Group_90">
            <title>glyph-0-0</title>
            <g id="Graphic_91">
              <path d="M 203.78875 242.83812 L 203.89208 242.7348 C 204.11022 242.5109 204.35132 242.26406 204.85075 242.22962 C 204.93111 242.21814 205 242.21814 205 242.0861 C 205 242.0287 204.95982 242 204.9024 242 C 204.71297 242 204.50057 242.02296 204.29966 242.02296 C 204.05855 242.02296 203.80597 242 203.5706 242 C 203.52468 242 203.43284 242 203.43284 242.13777 C 203.43284 242.21814 203.50172 242.22962 203.5419 242.22962 C 203.59357 242.22962 203.80597 242.2411 203.80597 242.3961 C 203.80597 242.5224 203.63375 242.71183 203.60505 242.74627 L 201.90586 244.7038 L 201.10218 242.52813 C 201.062 242.4248 201.062 242.41332 201.062 242.40184 C 201.062 242.22962 201.4179 242.22962 201.49254 242.22962 C 201.59587 242.22962 201.66475 242.22962 201.66475 242.08037 C 201.66475 242 201.57865 242 201.55568 242 C 201.35476 242 200.83812 242.02296 200.6372 242.02296 C 200.4535 242.02296 200 242 199.8163 242 C 199.77038 242 199.67853 242 199.67853 242.14925 C 199.67853 242.22962 199.74742 242.22962 199.845 242.22962 C 200.28129 242.22962 200.31573 242.29277 200.37887 242.47646 L 201.28014 244.8875 C 201.28588 244.9047 201.30884 244.98507 201.30884 245.00804 C 201.30884 245.031 201.01607 246.2078 200.98163 246.33984 C 200.88404 246.74168 200.8783 246.76464 200.29277 246.77038 C 200.14925 246.77038 200.09185 246.77038 200.09185 246.91963 C 200.09185 247 200.1837 247 200.19518 247 C 200.40184 247 200.91274 246.97704 201.1194 246.97704 C 201.32032 246.97704 201.84845 247 202.0551 247 C 202.10677 247 202.19288 247 202.19288 246.8565 C 202.19288 246.77038 202.12974 246.77038 201.99196 246.77038 C 201.97474 246.77038 201.83697 246.77038 201.71068 246.7589 C 201.55568 246.74168 201.5155 246.7302 201.5155 246.6441 C 201.5155 246.59242 201.57865 246.3341 201.6131 246.1791 L 201.87141 245.1458 C 201.90586 245.00804 201.91734 244.98507 201.97474 244.92193 L 203.78875 242.83812" fill="#4e8f00"/>
            </g>
          </g>
        </g>
        <g id="Group_92">
          <g id="Group_93">
            <title>glyph-0-0</title>
            <g id="Graphic_94">
              <path d="M 165.97245 208.21355 C 165.97933 208.1791 166 208.13088 166 208.08266 C 166 208 165.95178 208 165.77956 208 L 162.07349 208 C 161.85994 208 161.85305 208.0069 161.79794 208.1791 L 161.31574 209.7566 C 161.30196 209.80482 161.28818 209.85993 161.28818 209.8806 C 161.28818 209.88749 161.28818 209.97704 161.3984 209.97704 C 161.47418 209.97704 161.49484 209.91504 161.50862 209.88749 C 161.84616 208.8542 162.30081 208.27555 163.67165 208.27555 L 165.10448 208.27555 L 160.1929 213.76579 C 160.1929 213.77268 160.15845 213.89667 160.15845 213.92423 C 160.15845 214 160.22045 214 160.37889 214 L 164.19518 214 C 164.40873 214 164.41562 213.9931 164.47073 213.82778 L 165.0907 211.8852 C 165.10448 211.85075 165.13203 211.78875 165.13203 211.7543 C 165.13203 211.70608 165.0907 211.65786 165.01493 211.65786 C 164.93915 211.65786 164.92538 211.6923 164.86338 211.8714 C 164.47761 213.07003 164.0574 213.7038 162.56258 213.7038 L 161.06086 213.7038 L 165.97245 208.21355" fill="#4e8f00"/>
            </g>
          </g>
        </g>
      </g>
    </g>
  </g>
</svg>
