<?xml version="1.0" encoding="UTF-8" standalone="no"?>
<!DOCTYPE svg PUBLIC "-//W3C//DTD SVG 1.1//EN" "http://www.w3.org/Graphics/SVG/1.1/DTD/svg11.dtd">
<svg version="1.1" xmlns:dc="http://purl.org/dc/elements/1.1/" xmlns:xl="http://www.w3.org/1999/xlink" xmlns="http://www.w3.org/2000/svg" viewBox="82 97 153 167" width="153" height="167">
  <defs>
    <filter id="Shadow" filterUnits="userSpaceOnUse" x="66.7" y="80.3">
      <feGaussianBlur in="SourceAlpha" result="blur" stdDeviation="1.308"/>
      <feOffset in="blur" result="offset" dx="0" dy="2"/>
      <feFlood flood-color="black" flood-opacity=".5" result="flood"/>
      <feComposite in="flood" in2="offset" operator="in"/>
    </filter>
    <marker orient="auto" overflow="visible" markerUnits="strokeWidth" id="FilledArrow_Marker" stroke-linejoin="miter" stroke-miterlimit="10" viewBox="-1 -2 4 4" markerWidth="4" markerHeight="4" color="#4e8f00">
      <g>
        <path d="M 2 0 L 0 -.75 L 0 .75 Z" fill="currentColor" stroke="currentColor" stroke-width="1"/>
      </g>
    </marker>
    <marker orient="auto" overflow="visible" markerUnits="strokeWidth" id="FilledArrow_Marker_2" stroke-linejoin="miter" stroke-miterlimit="10" viewBox="-1 -2 4 4" markerWidth="4" markerHeight="4" color="#942093">
      <g>
        <path d="M 2 0 L 0 -.75 L 0 .75 Z" fill="currentColor" stroke="currentColor" stroke-width="1"/>
      </g>
    </marker>
    <marker orient="auto" overflow="visible" markerUnits="strokeWidth" id="FilledArrow_Marker_3" stroke-linejoin="miter" stroke-miterlimit="10" viewBox="-1 -2 4 4" markerWidth="4" markerHeight="4" color="#0432ff">
      <g>
        <path d="M 2 0 L 0 -.75 L 0 .75 Z" fill="currentColor" stroke="currentColor" stroke-width="1"/>
      </g>
    </marker>
    <marker orient="auto" overflow="visible" markerUnits="strokeWidth" id="FilledArrow_Marker_4" stroke-linejoin="miter" stroke-miterlimit="10" viewBox="-1 -2 4 4" markerWidth="4" markerHeight="4" color="#0432ff">
      <g>
        <path d="M 2 0 L 0 -.75 L 0 .75 Z" fill="currentColor" stroke="currentColor" stroke-width="1"/>
      </g>
    </marker>
    <marker orient="auto" overflow="visible" markerUnits="strokeWidth" id="FilledArrow_Marker_5" stroke-linejoin="miter" stroke-miterlimit="10" viewBox="-1 -2 5 4" markerWidth="5" markerHeight="4" color="#ff2600" opacity=".8">
      <g>
        <path d="M 2.4 0 L 0 -.9 L 0 .9 Z" fill="currentColor" stroke="currentColor" stroke-width="1"/>
      </g>
    </marker>
    <marker orient="auto" overflow="visible" markerUnits="strokeWidth" id="FilledArrow_Marker_6" stroke-linejoin="miter" stroke-miterlimit="10" viewBox="-1 -2 5 4" markerWidth="5" markerHeight="4" color="#ff2600">
      <g>
        <path d="M 2.4 0 L 0 -.9 L 0 .9 Z" fill="currentColor" stroke="currentColor" stroke-width="1"/>
      </g>
    </marker>
  </defs>
  <g id="Canvas_1" stroke-dasharray="none" stroke-opacity="1" stroke="none" fill="none" fill-opacity="1">
    <title>整个装置</title>
    <rect fill="white" x="82" y="97" width="153" height="167"/>
    <g id="Canvas_1_平衡状态">
      <title>平衡状态</title>
      <g id="Line_38_shadow" filter="url(#Shadow)">
        <line x1="152.09633" y1="147.73935" x2="165.61968" y2="136.1327" stroke="black" stroke-opacity=".10484484" stroke-linecap="round" stroke-linejoin="round" stroke-width="1"/>
      </g>
      <g id="Line_39_shadow" filter="url(#Shadow)">
        <line x1="152.09633" y1="147.73935" x2="134.09634" y2="147.73935" stroke="black" stroke-opacity=".10484484" stroke-linecap="round" stroke-linejoin="round" stroke-width="1"/>
      </g>
      <g id="Line_41_shadow" filter="url(#Shadow)">
        <line x1="152.83742" y1="242.66687" x2="152.09633" y2="147.73935" stroke="black" stroke-opacity=".10484484" stroke-linecap="round" stroke-linejoin="round" stroke-width="1"/>
      </g>
      <g id="Group_36">
        <title>群组</title>
        <g id="Line_41">
          <line x1="152.83742" y1="242.66687" x2="152.09633" y2="147.73935" stroke="black" stroke-opacity=".10484484" stroke-linecap="round" stroke-linejoin="round" stroke-width="1"/>
        </g>
        <g id="Graphic_40">
          <ellipse cx="178.8945" cy="124.73935" rx="15.7981903815327" ry="21.0000335559398" fill="white"/>
          <ellipse cx="178.8945" cy="124.73935" rx="15.7981903815327" ry="21.0000335559398" stroke="black" stroke-opacity=".10484484" stroke-linecap="round" stroke-linejoin="round" stroke-width="1"/>
        </g>
        <g id="Line_39">
          <line x1="152.09633" y1="147.73935" x2="134.09634" y2="147.73935" stroke="black" stroke-opacity=".10484484" stroke-linecap="round" stroke-linejoin="round" stroke-width="1"/>
        </g>
        <g id="Line_38">
          <line x1="152.09633" y1="147.73935" x2="165.61968" y2="136.1327" stroke="black" stroke-opacity=".10484484" stroke-linecap="round" stroke-linejoin="round" stroke-width="1"/>
        </g>
        <g id="Graphic_37">
          <ellipse cx="118.29817" cy="147.73935" rx="15.7981903815327" ry="21.0000335559398" fill="white"/>
          <ellipse cx="118.29817" cy="147.73935" rx="15.7981903815327" ry="21.0000335559398" stroke="black" stroke-opacity=".10484484" stroke-linecap="round" stroke-linejoin="round" stroke-width="1"/>
        </g>
      </g>
    </g>
    <g id="Canvas_1_偏移状态">
      <title>偏移状态</title>
      <g id="Line_17_shadow" filter="url(#Shadow)">
        <line x1="165.32502" y1="148.47427" x2="180.3321" y2="138.86266" stroke="black" stroke-linecap="round" stroke-linejoin="round" stroke-width="1"/>
      </g>
      <g id="Line_16_shadow" filter="url(#Shadow)">
        <line x1="165.32502" y1="148.47427" x2="147.5002" y2="145.96916" stroke="black" stroke-linecap="round" stroke-linejoin="round" stroke-width="1"/>
      </g>
      <g id="Line_13_shadow" filter="url(#Shadow)">
        <line x1="152.84754" y1="242.5811" x2="165.32502" y2="148.47427" stroke="black" stroke-linecap="round" stroke-linejoin="round" stroke-width="1"/>
      </g>
      <g id="Line_30">
        <line x1="152.84754" y1="242.5811" x2="153" y2="116" stroke="#666" stroke-linecap="round" stroke-linejoin="round" stroke-dasharray="2.0,2.0" stroke-width=".5"/>
      </g>
      <g id="Group_29">
        <g id="Line_13">
          <line x1="152.84754" y1="242.5811" x2="165.32502" y2="148.47427" stroke="black" stroke-linecap="round" stroke-linejoin="round" stroke-width="1"/>
        </g>
        <g id="Graphic_15">
          <path d="M 208.19224 116.27767 C 213.16044 125.2575 211.30993 138.42455 204.05902 145.6871 C 196.80813 152.9497 186.90265 151.55757 181.9345 142.5777 C 176.9663 133.59787 178.8168 120.43083 186.06772 113.16827 C 193.3186 105.90568 203.22409 107.2978 208.19224 116.27767" fill="white"/>
          <path d="M 208.19224 116.27767 C 213.16044 125.2575 211.30993 138.42455 204.05902 145.6871 C 196.80813 152.9497 186.90265 151.55757 181.9345 142.5777 C 176.9663 133.59787 178.8168 120.43083 186.06772 113.16827 C 193.3186 105.90568 203.22409 107.2978 208.19224 116.27767" stroke="black" stroke-linecap="round" stroke-linejoin="round" stroke-width="1"/>
        </g>
        <g id="Line_16">
          <line x1="165.32502" y1="148.47427" x2="147.5002" y2="145.96916" stroke="black" stroke-linecap="round" stroke-linejoin="round" stroke-width="1"/>
        </g>
        <g id="Line_17">
          <line x1="165.32502" y1="148.47427" x2="180.3321" y2="138.86266" stroke="black" stroke-linecap="round" stroke-linejoin="round" stroke-width="1"/>
        </g>
        <g id="Graphic_14">
          <path d="M 144.98465 130.62046 C 149.95284 139.6003 148.10234 152.76734 140.85143 160.02989 C 133.60054 167.29249 123.69506 165.90036 118.7269 156.92049 C 113.75871 147.94066 115.60922 134.77361 122.86013 127.51106 C 130.11101 120.24846 140.0165 121.64059 144.98465 130.62046" fill="white"/>
          <path d="M 144.98465 130.62046 C 149.95284 139.6003 148.10234 152.76734 140.85143 160.02989 C 133.60054 167.29249 123.69506 165.90036 118.7269 156.92049 C 113.75871 147.94066 115.60922 134.77361 122.86013 127.51106 C 130.11101 120.24846 140.0165 121.64059 144.98465 130.62046" stroke="black" stroke-linecap="round" stroke-linejoin="round" stroke-width="1"/>
        </g>
      </g>
      <g id="Line_21">
        <line x1="234" y1="243" x2="83" y2="242.92752" stroke="#00aeef" stroke-linecap="square" stroke-linejoin="bevel" stroke-dasharray="8.0,8.0" stroke-width="2"/>
      </g>
    </g>
    <g id="Canvas_1_F{b2}_">
      <title>F{b2} </title>
      <g id="Line_130">
        <line x1="152.84754" y1="242.5811" x2="129.19847" y2="253.50693" marker-end="url(#FilledArrow_Marker)" stroke="#4e8f00" stroke-linecap="round" stroke-linejoin="round" stroke-width=".9"/>
      </g>
      <g id="Line_129">
        <line x1="152.84754" y1="242.5811" x2="191.2026" y2="250.29783" marker-end="url(#FilledArrow_Marker)" stroke="#4e8f00" stroke-linecap="round" stroke-linejoin="round" stroke-width=".9"/>
      </g>
      <g id="Line_128">
        <line x1="152.84754" y1="242.5811" x2="157.30985" y2="208.92594" marker-end="url(#FilledArrow_Marker)" stroke="#4e8f00" stroke-linecap="round" stroke-linejoin="round" stroke-width=".9"/>
      </g>
      <g id="Group_190">
        <g id="Group_187">
          <g id="Group_188">
            <title>glyph-0-0</title>
            <g id="Graphic_189">
              <path d="M 140.26536 236.79739 C 140.26536 236.55686 140.42222 236.17255 141.07582 236.13072 C 141.10719 236.1255 141.13072 236.10196 141.13072 236.06536 C 141.13072 236 141.08366 236 141.01569 236 C 140.417 236 139.87059 236.30588 139.86536 236.75033 L 139.86536 238.11765 C 139.86536 238.35033 139.86536 238.5438 139.62484 238.74248 C 139.41569 238.91503 139.18562 238.9281 139.0549 238.93333 C 139.02353 238.93856 139 238.9621 139 238.9987 C 139 239.05882 139.0366 239.05882 139.09673 239.06405 C 139.4915 239.0902 139.7817 239.30458 139.84706 239.6 C 139.86536 239.66536 139.86536 239.67843 139.86536 239.8928 L 139.86536 241.08235 C 139.86536 241.33333 139.86536 241.52418 140.15294 241.75425 C 140.38562 241.93464 140.783 242 141.01569 242 C 141.08366 242 141.13072 242 141.13072 241.93464 C 141.13072 241.8745 141.09412 241.8745 141.03399 241.86667 C 140.65752 241.84314 140.36209 241.6523 140.28366 241.3464 C 140.26536 241.2915 140.26536 241.27843 140.26536 241.06405 L 140.26536 239.80392 C 140.26536 239.5268 140.2183 239.42484 140.02745 239.234 C 139.89935 239.1085 139.7268 239.04837 139.55948 238.9987 C 140.05098 238.86013 140.26536 238.58562 140.26536 238.2379 L 140.26536 236.79739" fill="#4e8f00"/>
            </g>
          </g>
        </g>
        <g id="Group_184">
          <g id="Group_185">
            <title>glyph-1-0</title>
            <g id="Graphic_186">
              <path d="M 142.85321 238.09412 L 142.85321 236.33464 L 141.79177 236.3843 L 141.79177 236.66405 C 142.16301 236.66405 142.20484 236.66405 142.20484 236.89935 L 142.20484 240.49935 L 142.4872 240.49935 L 142.78262 240.1621 C 142.82968 240.21176 143.12249 240.53595 143.65844 240.53595 C 144.55256 240.53595 145.16955 239.99477 145.16955 239.16078 C 145.16955 238.3634 144.60484 237.7987 143.73426 237.7987 C 143.29765 237.7987 142.997 237.97386 142.85321 238.09412 M 142.88981 239.90588 L 142.88981 238.4 C 143.0519 238.18824 143.33948 238.0157 143.6689 238.0157 C 144.40092 238.0157 144.40092 238.74248 144.40092 239.16078 C 144.40092 239.44314 144.40092 239.77255 144.24667 240.00784 C 144.07151 240.2536 143.79439 240.31895 143.60354 240.31895 C 143.18262 240.31895 142.94994 239.99477 142.88981 239.90588" fill="#4e8f00"/>
            </g>
          </g>
        </g>
        <g id="Group_181">
          <g id="Group_182">
            <title>glyph-2-0</title>
            <g id="Graphic_183">
              <path d="M 147.5264 240.63647 L 147.38261 240.63647 C 147.36954 240.72797 147.32771 240.97633 147.2728 241.01816 C 147.23882 241.0417 146.91725 241.0417 146.85712 241.0417 L 146.08326 241.0417 C 146.5251 240.65215 146.6715 240.5345 146.9251 240.3358 C 147.2362 240.09006 147.5264 239.82862 147.5264 239.42862 C 147.5264 238.92143 147.07934 238.61032 146.54078 238.61032 C 146.02052 238.61032 145.66758 238.97633 145.66758 239.36326 C 145.66758 239.57764 145.84797 239.59856 145.8898 239.59856 C 145.99176 239.59856 146.11464 239.52535 146.11464 239.37372 C 146.11464 239.30052 146.08326 239.1515 145.86627 239.1515 C 145.99699 238.85346 146.28196 238.76196 146.47804 238.76196 C 146.89895 238.76196 147.11856 239.08875 147.11856 239.42862 C 147.11856 239.79464 146.85712 240.08483 146.72379 240.23647 L 145.7094 241.23516 C 145.66758 241.27437 145.66758 241.28222 145.66758 241.39986 L 147.3983 241.39986 L 147.5264 240.63647" fill="#4e8f00"/>
            </g>
          </g>
        </g>
        <g id="Group_178">
          <g id="Group_179">
            <title>glyph-0-1</title>
            <g id="Graphic_180">
              <path d="M 149.39217 241.20261 C 149.39217 241.44052 149.23531 241.82484 148.58172 241.86667 C 148.55034 241.8745 148.52681 241.89804 148.52681 241.93464 C 148.52681 242 148.59217 242 148.64708 242 C 149.23008 242 149.78694 241.70458 149.79217 241.24967 L 149.79217 239.88235 C 149.79217 239.64706 149.79217 239.4562 150.0327 239.25752 C 150.24446 239.08235 150.47191 239.0719 150.60263 239.06405 C 150.634 239.05882 150.65753 239.0353 150.65753 238.9987 C 150.65753 238.93856 150.62093 238.93856 150.5608 238.93333 C 150.16603 238.9098 149.87845 238.6928 149.81047 238.4 C 149.79217 238.33464 149.79217 238.32157 149.79217 238.10458 L 149.79217 236.91765 C 149.79217 236.66405 149.79217 236.4732 149.5046 236.24575 C 149.26668 236.06013 148.851 236 148.64708 236 C 148.59217 236 148.52681 236 148.52681 236.06536 C 148.52681 236.1255 148.56342 236.1255 148.62355 236.13072 C 149.00263 236.15425 149.29544 236.3477 149.37387 236.6536 C 149.39217 236.7085 149.39217 236.71895 149.39217 236.93595 L 149.39217 238.19608 C 149.39217 238.4706 149.43923 238.57255 149.6327 238.766 C 149.75819 238.8915 149.93074 238.95163 150.10067 238.9987 C 149.60655 239.13725 149.39217 239.41438 149.39217 239.7621 L 149.39217 241.20261" fill="#4e8f00"/>
            </g>
          </g>
        </g>
      </g>
    </g>
    <g id="Canvas_1_F{o}_">
      <title>F{o} </title>
      <g id="Line_143">
        <line x1="152.84754" y1="242.5811" x2="134.54331" y2="260.50898" marker-end="url(#FilledArrow_Marker_2)" stroke="#942093" stroke-linecap="round" stroke-linejoin="round" stroke-width=".9"/>
      </g>
      <g id="Line_142">
        <line x1="152.84754" y1="242.5811" x2="191.13284" y2="242.96436" marker-end="url(#FilledArrow_Marker_2)" stroke="#942093" stroke-linecap="round" stroke-linejoin="round" stroke-width=".9"/>
      </g>
      <g id="Line_141">
        <line x1="152.84754" y1="242.5811" x2="152.84754" y2="205.56" marker-end="url(#FilledArrow_Marker_2)" stroke="#942093" stroke-linecap="round" stroke-linejoin="round" stroke-width=".9"/>
      </g>
      <g id="Group_232">
        <g id="Group_229">
          <g id="Group_230">
            <title>glyph-0-0</title>
            <g id="Graphic_231">
              <path d="M 157.26536 235.79739 C 157.26536 235.55686 157.42222 235.17255 158.07582 235.13072 C 158.10719 235.1255 158.13072 235.10196 158.13072 235.06536 C 158.13072 235 158.08366 235 158.01569 235 C 157.417 235 156.87059 235.30588 156.86536 235.75033 L 156.86536 237.11765 C 156.86536 237.35033 156.86536 237.5438 156.62484 237.74248 C 156.41569 237.91503 156.18562 237.9281 156.0549 237.93333 C 156.02353 237.93856 156 237.9621 156 237.9987 C 156 238.05882 156.0366 238.05882 156.09673 238.06405 C 156.4915 238.0902 156.7817 238.30458 156.84706 238.6 C 156.86536 238.66536 156.86536 238.67843 156.86536 238.8928 L 156.86536 240.08235 C 156.86536 240.33333 156.86536 240.52418 157.15294 240.75425 C 157.38562 240.93464 157.783 241 158.01569 241 C 158.08366 241 158.13072 241 158.13072 240.93464 C 158.13072 240.8745 158.09412 240.8745 158.03399 240.86667 C 157.65752 240.84314 157.3621 240.6523 157.28366 240.3464 C 157.26536 240.2915 157.26536 240.27843 157.26536 240.06405 L 157.26536 238.80392 C 157.26536 238.5268 157.2183 238.42484 157.02745 238.234 C 156.89935 238.1085 156.7268 238.04837 156.55948 237.9987 C 157.05098 237.86013 157.26536 237.58562 157.26536 237.2379 L 157.26536 235.79739" fill="#942093"/>
            </g>
          </g>
        </g>
        <g id="Group_226">
          <g id="Group_227">
            <title>glyph-1-0</title>
            <g id="Graphic_228">
              <path d="M 161.82184 238.19216 C 161.82184 237.38693 161.2702 236.7804 160.29243 236.7804 C 159.3068 236.7804 158.7604 237.39216 158.7604 238.19216 C 158.7604 238.93464 159.2885 239.53595 160.29243 239.53595 C 161.29896 239.53595 161.82184 238.9294 161.82184 238.19216 M 160.29243 239.29542 C 159.52903 239.29542 159.52903 238.64706 159.52903 238.12418 C 159.52903 237.8549 159.52903 237.54902 159.63099 237.3451 C 159.74602 237.12288 159.997 236.99739 160.29243 236.99739 C 160.5434 236.99739 160.79439 237.09412 160.92772 237.30327 C 161.05321 237.5072 161.05321 237.8366 161.05321 238.12418 C 161.05321 238.64706 161.05321 239.29542 160.29243 239.29542" fill="#942093"/>
            </g>
          </g>
        </g>
        <g id="Group_223">
          <g id="Group_224">
            <title>glyph-0-1</title>
            <g id="Graphic_225">
              <path d="M 163.31656 240.20261 C 163.31656 240.44052 163.1597 240.82484 162.5061 240.86667 C 162.47473 240.8745 162.4512 240.89804 162.4512 240.93464 C 162.4512 241 162.51656 241 162.57146 241 C 163.15447 241 163.71133 240.70458 163.71656 240.24967 L 163.71656 238.88235 C 163.71656 238.64706 163.71656 238.4562 163.95708 238.25752 C 164.16885 238.08235 164.3963 238.0719 164.52702 238.06405 C 164.55839 238.05882 164.58192 238.0353 164.58192 237.9987 C 164.58192 237.93856 164.54532 237.93856 164.48519 237.93333 C 164.09042 237.9098 163.80283 237.6928 163.73486 237.4 C 163.71656 237.33464 163.71656 237.32157 163.71656 237.10458 L 163.71656 235.91765 C 163.71656 235.66405 163.71656 235.4732 163.42898 235.24575 C 163.19107 235.06013 162.77538 235 162.57146 235 C 162.51656 235 162.4512 235 162.4512 235.06536 C 162.4512 235.1255 162.4878 235.1255 162.54793 235.13072 C 162.92702 235.15425 163.21983 235.3477 163.29826 235.6536 C 163.31656 235.7085 163.31656 235.71895 163.31656 235.93595 L 163.31656 237.19608 C 163.31656 237.4706 163.36362 237.57255 163.55708 237.766 C 163.68257 237.8915 163.85512 237.95163 164.02506 237.9987 C 163.53094 238.13725 163.31656 238.41438 163.31656 238.7621 L 163.31656 240.20261" fill="#942093"/>
            </g>
          </g>
        </g>
      </g>
    </g>
    <g id="Canvas_1_F{b}">
      <title>F{b}</title>
      <g id="Group_95">
        <g id="Group_86">
          <g id="Group_87">
            <title>glyph-0-0</title>
            <g id="Graphic_88">
              <path d="M 111.31917 135.99196 L 110.70494 134.53387 C 110.68197 134.47646 110.6705 134.44776 110.6705 134.44202 C 110.6705 134.3961 110.79679 134.25832 111.10103 134.22962 C 111.17566 134.21814 111.25029 134.2124 111.25029 134.0861 C 111.25029 134 111.15844 134 111.13548 134 C 110.83697 134 110.52124 134.02296 110.21699 134.02296 C 110.0333 134.02296 109.57979 134 109.3961 134 C 109.35017 134 109.26406 134 109.26406 134.14925 C 109.26406 134.22962 109.33869 134.22962 109.43054 134.22962 C 109.87256 134.22962 109.91848 134.2985 109.98163 134.46498 L 110.84271 136.50287 L 109.29851 138.16762 L 109.20666 138.24799 C 108.845 138.6326 108.50057 138.75316 108.12744 138.77038 C 108.03559 138.78186 107.9667 138.78186 107.9667 138.91963 C 107.9667 138.92537 107.9667 139 108.0643 139 C 108.28243 139 108.52354 138.97704 108.75316 138.97704 C 109.02296 138.97704 109.30999 139 109.57405 139 C 109.61424 139 109.70608 139 109.70608 138.85649 C 109.70608 138.78186 109.63146 138.77038 109.61424 138.77038 C 109.55109 138.76464 109.32147 138.75316 109.32147 138.5465 C 109.32147 138.43169 109.43054 138.31114 109.52239 138.21929 L 110.26866 137.4271 L 110.92882 136.70953 L 111.6636 138.46039 C 111.69231 138.54076 111.70379 138.5465 111.70379 138.56372 C 111.70379 138.62113 111.56028 138.74168 111.27899 138.77038 C 111.19862 138.78186 111.12974 138.7876 111.12974 138.9139 C 111.12974 139 111.2101 139 111.2388 139 C 111.44546 139 111.95637 138.97704 112.16303 138.97704 C 112.34673 138.97704 112.79449 139 112.97819 139 C 113.02411 139 113.11596 139 113.11596 138.86223 C 113.11596 138.77038 113.04133 138.77038 112.98393 138.77038 C 112.49024 138.76464 112.47876 138.74168 112.35247 138.44891 C 112.06544 137.77153 111.5775 136.62916 111.41102 136.18714 C 111.90471 135.67623 112.67394 134.80367 112.9093 134.60276 C 113.1217 134.4248 113.39724 134.25258 113.83927 134.22962 C 113.93685 134.21814 114 134.21814 114 134.08037 C 114 134.07463 114 134 113.90241 134 C 113.68427 134 113.44317 134.02296 113.21929 134.02296 C 112.94374 134.02296 112.6682 134 112.40413 134 C 112.35821 134 112.26636 134 112.26636 134.14925 C 112.26636 134.20092 112.3008 134.21814 112.35247 134.22962 C 112.42135 134.23536 112.64524 134.25258 112.64524 134.4535 C 112.64524 134.55683 112.56487 134.65442 112.50746 134.71757 L 111.31917 135.99196" fill="#0432ff"/>
            </g>
          </g>
        </g>
        <g id="Group_89">
          <g id="Group_90">
            <title>glyph-0-0</title>
            <g id="Graphic_91">
              <path d="M 225.11022 105.83812 L 225.21355 105.73479 C 225.4317 105.51091 225.6728 105.26406 226.17222 105.22962 C 226.25258 105.21814 226.32147 105.21814 226.32147 105.08611 C 226.32147 105.0287 226.28129 105 226.22388 105 C 226.03444 105 225.82204 105.02296 225.62113 105.02296 C 225.38002 105.02296 225.12744 105 224.89208 105 C 224.84615 105 224.7543 105 224.7543 105.13777 C 224.7543 105.21814 224.8232 105.22962 224.86338 105.22962 C 224.91504 105.22962 225.12744 105.2411 225.12744 105.3961 C 225.12744 105.52239 224.95522 105.71183 224.92652 105.74627 L 223.22732 107.70379 L 222.42365 105.52813 C 222.38347 105.4248 222.38347 105.41332 222.38347 105.40184 C 222.38347 105.22962 222.73938 105.22962 222.814 105.22962 C 222.91734 105.22962 222.98622 105.22962 222.98622 105.08037 C 222.98622 105 222.90011 105 222.87715 105 C 222.67623 105 222.15959 105.02296 221.95867 105.02296 C 221.77497 105.02296 221.32147 105 221.13777 105 C 221.09185 105 221 105 221 105.14925 C 221 105.22962 221.06889 105.22962 221.16648 105.22962 C 221.60276 105.22962 221.6372 105.29277 221.70034 105.47646 L 222.6016 107.88749 C 222.60735 107.90471 222.6303 107.98507 222.6303 108.00804 C 222.6303 108.031 222.33754 109.20781 222.3031 109.33984 C 222.2055 109.74168 222.19977 109.76464 221.61424 109.77038 C 221.47072 109.77038 221.41332 109.77038 221.41332 109.91963 C 221.41332 110 221.50517 110 221.51665 110 C 221.7233 110 222.23421 109.97704 222.44087 109.97704 C 222.6418 109.97704 223.16992 110 223.37658 110 C 223.42824 110 223.51435 110 223.51435 109.85649 C 223.51435 109.77038 223.4512 109.77038 223.31343 109.77038 C 223.2962 109.77038 223.15844 109.77038 223.03215 109.7589 C 222.87715 109.74168 222.83697 109.7302 222.83697 109.64409 C 222.83697 109.59242 222.90011 109.3341 222.93456 109.1791 L 223.19288 108.14581 C 223.22732 108.00804 223.2388 107.98507 223.2962 107.92193 L 225.11022 105.83812" fill="#0432ff"/>
            </g>
          </g>
        </g>
        <g id="Group_92">
          <g id="Group_93">
            <title>glyph-0-0</title>
            <g id="Graphic_94">
              <path d="M 169.814 99.21355 C 169.82088 99.1791 169.84155 99.13088 169.84155 99.08266 C 169.84155 99 169.79333 99 169.62111 99 L 165.91504 99 C 165.70149 99 165.6946 99.00689 165.6395 99.1791 L 165.15729 100.7566 C 165.14351 100.80482 165.12973 100.85993 165.12973 100.8806 C 165.12973 100.88749 165.12973 100.97704 165.23995 100.97704 C 165.31573 100.97704 165.3364 100.91504 165.35017 100.88749 C 165.68771 99.85419 166.14236 99.27555 167.5132 99.27555 L 168.94603 99.27555 L 164.03444 104.76579 C 164.03444 104.77268 164 104.89667 164 104.92423 C 164 105 164.062 105 164.22044 105 L 168.03673 105 C 168.25028 105 168.25717 104.99311 168.31228 104.82778 L 168.93225 102.88519 C 168.94603 102.85075 168.97358 102.78875 168.97358 102.7543 C 168.97358 102.70608 168.93225 102.65786 168.85648 102.65786 C 168.7807 102.65786 168.76693 102.69231 168.70493 102.87141 C 168.31917 104.07003 167.89896 104.70379 166.40413 104.70379 L 164.9024 104.70379 L 169.814 99.21355" fill="#0432ff"/>
            </g>
          </g>
        </g>
      </g>
      <g id="Line_27">
        <line x1="165.32502" y1="148.47427" x2="106.52754" y2="140.47964" marker-end="url(#FilledArrow_Marker_3)" stroke="#0432ff" stroke-linecap="round" stroke-linejoin="round" stroke-width=".9"/>
      </g>
      <g id="Line_31">
        <line x1="165.32502" y1="148.47427" x2="226.98223" y2="109.88855" marker-end="url(#FilledArrow_Marker_3)" stroke="#0432ff" stroke-linecap="round" stroke-linejoin="round" stroke-width=".9"/>
      </g>
      <g id="Line_32">
        <line x1="165.32502" y1="148.47427" x2="162.23401" y2="101.5523" marker-end="url(#FilledArrow_Marker_3)" stroke="#0432ff" stroke-linecap="round" stroke-linejoin="round" stroke-width=".9"/>
      </g>
      <g id="Group_209">
        <g id="Group_197">
          <g id="Group_198">
            <title>glyph-0-0</title>
            <g id="Graphic_199">
              <path d="M 155.30034 140.79739 C 155.30034 140.55686 155.4572 140.17255 156.1108 140.13072 C 156.14217 140.12549 156.1657 140.10196 156.1657 140.06536 C 156.1657 140 156.11864 140 156.05067 140 C 155.45198 140 154.90557 140.30588 154.90034 140.75033 L 154.90034 142.11765 C 154.90034 142.35033 154.90034 142.54379 154.65982 142.74248 C 154.45067 142.91503 154.2206 142.9281 154.08989 142.93333 C 154.05851 142.93856 154.03498 142.9621 154.03498 142.9987 C 154.03498 143.05882 154.07159 143.05882 154.13172 143.06405 C 154.52649 143.0902 154.81668 143.30458 154.88204 143.6 C 154.90034 143.66536 154.90034 143.67843 154.90034 143.89281 L 154.90034 145.08235 C 154.90034 145.33333 154.90034 145.52418 155.18793 145.75425 C 155.4206 145.93464 155.818 146 156.05067 146 C 156.11864 146 156.1657 146 156.1657 145.93464 C 156.1657 145.87451 156.1291 145.87451 156.06897 145.86667 C 155.6925 145.84314 155.39708 145.65229 155.31864 145.3464 C 155.30034 145.2915 155.30034 145.27843 155.30034 145.06405 L 155.30034 143.80392 C 155.30034 143.5268 155.25329 143.42484 155.06244 143.23399 C 154.93433 143.1085 154.76178 143.04837 154.59446 142.9987 C 155.08596 142.86013 155.30034 142.58562 155.30034 142.23791 L 155.30034 140.79739" fill="#0432ff"/>
            </g>
          </g>
        </g>
        <g id="Group_194">
          <g id="Group_195">
            <title>glyph-1-0</title>
            <g id="Graphic_196">
              <path d="M 157.8876 142.09412 L 157.8876 140.33464 L 156.82615 140.38431 L 156.82615 140.66405 C 157.1974 140.66405 157.23923 140.66405 157.23923 140.89935 L 157.23923 144.49935 L 157.52158 144.49935 L 157.817 144.1621 C 157.86406 144.21176 158.15687 144.53595 158.69282 144.53595 C 159.58694 144.53595 160.20393 143.99477 160.20393 143.16078 C 160.20393 142.3634 159.63923 141.7987 158.76864 141.7987 C 158.33204 141.7987 158.03138 141.97386 157.8876 142.09412 M 157.9242 143.90588 L 157.9242 142.4 C 158.08628 142.18824 158.37387 142.01569 158.70328 142.01569 C 159.4353 142.01569 159.4353 142.74248 159.4353 143.16078 C 159.4353 143.44314 159.4353 143.77255 159.28106 144.00784 C 159.1059 144.2536 158.82877 144.31895 158.63792 144.31895 C 158.217 144.31895 157.98432 143.99477 157.9242 143.90588" fill="#0432ff"/>
            </g>
          </g>
        </g>
        <g id="Group_191">
          <g id="Group_192">
            <title>glyph-0-1</title>
            <g id="Graphic_193">
              <path d="M 161.73464 145.20261 C 161.73464 145.44052 161.57778 145.82484 160.92418 145.86667 C 160.89281 145.87451 160.86928 145.89804 160.86928 145.93464 C 160.86928 146 160.93464 146 160.98954 146 C 161.57255 146 162.12941 145.70458 162.13464 145.24967 L 162.13464 143.88235 C 162.13464 143.64706 162.13464 143.45621 162.37516 143.25752 C 162.58693 143.08235 162.81438 143.0719 162.9451 143.06405 C 162.97647 143.05882 163 143.0353 163 142.9987 C 163 142.93856 162.9634 142.93856 162.90327 142.93333 C 162.5085 142.9098 162.22092 142.69281 162.15294 142.4 C 162.13464 142.33464 162.13464 142.32157 162.13464 142.10458 L 162.13464 140.91765 C 162.13464 140.66405 162.13464 140.4732 161.84706 140.24575 C 161.60915 140.06013 161.19346 140 160.98954 140 C 160.93464 140 160.86928 140 160.86928 140.06536 C 160.86928 140.12549 160.90588 140.12549 160.96601 140.13072 C 161.3451 140.15425 161.6379 140.34771 161.71634 140.6536 C 161.73464 140.7085 161.73464 140.71895 161.73464 140.93595 L 161.73464 142.19608 C 161.73464 142.47059 161.7817 142.57255 161.97516 142.76601 C 162.10065 142.8915 162.2732 142.95163 162.44314 142.9987 C 161.94902 143.13725 161.73464 143.41438 161.73464 143.7621 L 161.73464 145.20261" fill="#0432ff"/>
            </g>
          </g>
        </g>
      </g>
    </g>
    <g id="Canvas_1_F{w1}">
      <title>F{w1}</title>
      <g id="Group_155">
        <g id="Group_162">
          <g id="Group_163">
            <title>glyph-0-0</title>
            <g id="Graphic_164">
              <path d="M 111.31917 135.99196 L 110.70494 134.53387 C 110.68197 134.47646 110.6705 134.44776 110.6705 134.44202 C 110.6705 134.3961 110.79679 134.25832 111.10103 134.22962 C 111.17566 134.21814 111.25029 134.2124 111.25029 134.0861 C 111.25029 134 111.15844 134 111.13548 134 C 110.83697 134 110.52124 134.02296 110.21699 134.02296 C 110.0333 134.02296 109.57979 134 109.3961 134 C 109.35017 134 109.26406 134 109.26406 134.14925 C 109.26406 134.22962 109.33869 134.22962 109.43054 134.22962 C 109.87256 134.22962 109.91848 134.2985 109.98163 134.46498 L 110.84271 136.50287 L 109.29851 138.16762 L 109.20666 138.24799 C 108.845 138.6326 108.50057 138.75316 108.12744 138.77038 C 108.03559 138.78186 107.9667 138.78186 107.9667 138.91963 C 107.9667 138.92537 107.9667 139 108.0643 139 C 108.28243 139 108.52354 138.97704 108.75316 138.97704 C 109.02296 138.97704 109.30999 139 109.57405 139 C 109.61424 139 109.70608 139 109.70608 138.85649 C 109.70608 138.78186 109.63146 138.77038 109.61424 138.77038 C 109.55109 138.76464 109.32147 138.75316 109.32147 138.5465 C 109.32147 138.43169 109.43054 138.31114 109.52239 138.21929 L 110.26866 137.4271 L 110.92882 136.70953 L 111.6636 138.46039 C 111.69231 138.54076 111.70379 138.5465 111.70379 138.56372 C 111.70379 138.62113 111.56028 138.74168 111.27899 138.77038 C 111.19862 138.78186 111.12974 138.7876 111.12974 138.9139 C 111.12974 139 111.2101 139 111.2388 139 C 111.44546 139 111.95637 138.97704 112.16303 138.97704 C 112.34673 138.97704 112.79449 139 112.97819 139 C 113.02411 139 113.11596 139 113.11596 138.86223 C 113.11596 138.77038 113.04133 138.77038 112.98393 138.77038 C 112.49024 138.76464 112.47876 138.74168 112.35247 138.44891 C 112.06544 137.77153 111.5775 136.62916 111.41102 136.18714 C 111.90471 135.67623 112.67394 134.80367 112.9093 134.60276 C 113.1217 134.4248 113.39724 134.25258 113.83927 134.22962 C 113.93685 134.21814 114 134.21814 114 134.08037 C 114 134.07463 114 134 113.90241 134 C 113.68427 134 113.44317 134.02296 113.21929 134.02296 C 112.94374 134.02296 112.6682 134 112.40413 134 C 112.35821 134 112.26636 134 112.26636 134.14925 C 112.26636 134.20092 112.3008 134.21814 112.35247 134.22962 C 112.42135 134.23536 112.64524 134.25258 112.64524 134.4535 C 112.64524 134.55683 112.56487 134.65442 112.50746 134.71757 L 111.31917 135.99196" fill="#0432ff"/>
            </g>
          </g>
        </g>
        <g id="Group_159">
          <g id="Group_160">
            <title>glyph-0-0</title>
            <g id="Graphic_161">
              <path d="M 225.11022 105.83812 L 225.21355 105.73479 C 225.4317 105.51091 225.6728 105.26406 226.17222 105.22962 C 226.25258 105.21814 226.32147 105.21814 226.32147 105.08611 C 226.32147 105.0287 226.28129 105 226.22388 105 C 226.03444 105 225.82204 105.02296 225.62113 105.02296 C 225.38002 105.02296 225.12744 105 224.89208 105 C 224.84615 105 224.7543 105 224.7543 105.13777 C 224.7543 105.21814 224.8232 105.22962 224.86338 105.22962 C 224.91504 105.22962 225.12744 105.2411 225.12744 105.3961 C 225.12744 105.52239 224.95522 105.71183 224.92652 105.74627 L 223.22732 107.70379 L 222.42365 105.52813 C 222.38347 105.4248 222.38347 105.41332 222.38347 105.40184 C 222.38347 105.22962 222.73938 105.22962 222.814 105.22962 C 222.91734 105.22962 222.98622 105.22962 222.98622 105.08037 C 222.98622 105 222.90011 105 222.87715 105 C 222.67623 105 222.15959 105.02296 221.95867 105.02296 C 221.77497 105.02296 221.32147 105 221.13777 105 C 221.09185 105 221 105 221 105.14925 C 221 105.22962 221.06889 105.22962 221.16648 105.22962 C 221.60276 105.22962 221.6372 105.29277 221.70034 105.47646 L 222.6016 107.88749 C 222.60735 107.90471 222.6303 107.98507 222.6303 108.00804 C 222.6303 108.031 222.33754 109.20781 222.3031 109.33984 C 222.2055 109.74168 222.19977 109.76464 221.61424 109.77038 C 221.47072 109.77038 221.41332 109.77038 221.41332 109.91963 C 221.41332 110 221.50517 110 221.51665 110 C 221.7233 110 222.23421 109.97704 222.44087 109.97704 C 222.6418 109.97704 223.16992 110 223.37658 110 C 223.42824 110 223.51435 110 223.51435 109.85649 C 223.51435 109.77038 223.4512 109.77038 223.31343 109.77038 C 223.2962 109.77038 223.15844 109.77038 223.03215 109.7589 C 222.87715 109.74168 222.83697 109.7302 222.83697 109.64409 C 222.83697 109.59242 222.90011 109.3341 222.93456 109.1791 L 223.19288 108.14581 C 223.22732 108.00804 223.2388 107.98507 223.2962 107.92193 L 225.11022 105.83812" fill="#0432ff"/>
            </g>
          </g>
        </g>
        <g id="Group_156">
          <g id="Group_157">
            <title>glyph-0-0</title>
            <g id="Graphic_158">
              <path d="M 169.814 99.21355 C 169.82088 99.1791 169.84155 99.13088 169.84155 99.08266 C 169.84155 99 169.79333 99 169.62111 99 L 165.91504 99 C 165.70149 99 165.6946 99.00689 165.6395 99.1791 L 165.15729 100.7566 C 165.14351 100.80482 165.12973 100.85993 165.12973 100.8806 C 165.12973 100.88749 165.12973 100.97704 165.23995 100.97704 C 165.31573 100.97704 165.3364 100.91504 165.35017 100.88749 C 165.68771 99.85419 166.14236 99.27555 167.5132 99.27555 L 168.94603 99.27555 L 164.03444 104.76579 C 164.03444 104.77268 164 104.89667 164 104.92423 C 164 105 164.062 105 164.22044 105 L 168.03673 105 C 168.25028 105 168.25717 104.99311 168.31228 104.82778 L 168.93225 102.88519 C 168.94603 102.85075 168.97358 102.78875 168.97358 102.7543 C 168.97358 102.70608 168.93225 102.65786 168.85648 102.65786 C 168.7807 102.65786 168.76693 102.69231 168.70493 102.87141 C 168.31917 104.07003 167.89896 104.70379 166.40413 104.70379 L 164.9024 104.70379 L 169.814 99.21355" fill="#0432ff"/>
            </g>
          </g>
        </g>
      </g>
      <g id="Line_175">
        <line x1="165.32502" y1="148.47427" x2="106.52754" y2="140.47964" marker-end="url(#FilledArrow_Marker_4)" stroke="#0432ff" stroke-linecap="round" stroke-linejoin="round" stroke-width=".9"/>
      </g>
      <g id="Line_176">
        <line x1="165.32502" y1="148.47427" x2="226.98223" y2="109.88855" marker-end="url(#FilledArrow_Marker_4)" stroke="#0432ff" stroke-linecap="round" stroke-linejoin="round" stroke-width=".9"/>
      </g>
      <g id="Line_177">
        <line x1="165.32502" y1="148.47427" x2="162.23401" y2="101.5523" marker-end="url(#FilledArrow_Marker_4)" stroke="#0432ff" stroke-linecap="round" stroke-linejoin="round" stroke-width=".9"/>
      </g>
    </g>
    <g id="Canvas_1_标识">
      <title>标识</title>
      <g id="Line_85_shadow" filter="url(#Shadow)">
        <path d="M 168.84394 134.48065 C 168.84394 134.48065 168.26687 133.13328 167 133 C 165.73313 132.86672 164.3722 134.0102 164.3722 134.0102" stroke="black" stroke-linecap="round" stroke-linejoin="round" stroke-width=".8"/>
      </g>
      <g id="Line_85">
        <path d="M 168.84394 134.48065 C 168.84394 134.48065 168.26687 133.13328 167 133 C 165.73313 132.86672 164.3722 134.0102 164.3722 134.0102" stroke="black" stroke-linecap="round" stroke-linejoin="round" stroke-width=".8"/>
      </g>
      <g id="Group_82">
        <g id="Group_83">
          <title>glyph-0-0</title>
          <g id="Graphic_84">
            <path d="M 167.89028 127.36285 C 167.89028 126.32339 167.27238 126 166.78152 126 C 165.87488 126 165 126.94706 165 127.87969 C 165 128.4976 165.39846 129 166.0741 129 C 166.4899 129 166.9692 128.84697 167.4716 128.44273 C 167.55823 128.795 167.77767 129 168.07507 129 C 168.42733 129 168.63234 128.63619 168.63234 128.52936 C 168.63234 128.48316 168.59192 128.46295 168.5515 128.46295 C 168.5053 128.46295 168.48508 128.48316 168.46487 128.52936 C 168.34649 128.85563 168.10683 128.85563 168.09528 128.85563 C 167.89028 128.85563 167.89028 128.33879 167.89028 128.17998 C 167.89028 128.0385 167.89028 128.02695 167.95669 127.9461 C 168.57748 127.1665 168.71896 126.39557 168.71896 126.3898 C 168.71896 126.37536 168.7103 126.32339 168.63811 126.32339 C 168.5717 126.32339 168.5717 126.3436 168.53994 126.46198 C 168.41867 126.88065 168.20212 127.38306 167.89028 127.77575 L 167.89028 127.36285 M 167.44562 128.27238 C 166.86237 128.78345 166.3513 128.85563 166.08566 128.85563 C 165.69009 128.85563 165.49086 128.55534 165.49086 128.13378 C 165.49086 127.8075 165.6641 127.09143 165.87488 126.75361 C 166.18672 126.27141 166.54475 126.14437 166.77575 126.14437 C 167.43118 126.14437 167.43118 127.01347 167.43118 127.53032 C 167.43118 127.77575 167.43118 128.15977 167.44562 128.27238" fill="black"/>
          </g>
        </g>
      </g>
    </g>
    <g id="Canvas_1_F{b1}_">
      <title>F{b1} </title>
      <g id="Group_116">
        <g id="Group_123">
          <g id="Group_124">
            <title>glyph-0-0</title>
            <g id="Graphic_125">
              <path d="M 129.31917 138.99196 L 128.70494 137.53387 C 128.68197 137.47646 128.6705 137.44776 128.6705 137.44202 C 128.6705 137.3961 128.79679 137.25832 129.10103 137.22962 C 129.17566 137.21814 129.25029 137.2124 129.25029 137.0861 C 129.25029 137 129.15844 137 129.13548 137 C 128.83697 137 128.52124 137.02296 128.21699 137.02296 C 128.0333 137.02296 127.5798 137 127.3961 137 C 127.35017 137 127.26406 137 127.26406 137.14925 C 127.26406 137.22962 127.33869 137.22962 127.43054 137.22962 C 127.87256 137.22962 127.91848 137.2985 127.98163 137.46498 L 128.84271 139.50287 L 127.2985 141.16762 L 127.20666 141.24799 C 126.845 141.6326 126.50057 141.75316 126.12744 141.77038 C 126.03559 141.78186 125.9667 141.78186 125.9667 141.91963 C 125.9667 141.92537 125.9667 142 126.0643 142 C 126.28243 142 126.52354 141.97704 126.75316 141.97704 C 127.02296 141.97704 127.30999 142 127.57405 142 C 127.61424 142 127.70608 142 127.70608 141.85649 C 127.70608 141.78186 127.63146 141.77038 127.61424 141.77038 C 127.55109 141.76464 127.32147 141.75316 127.32147 141.5465 C 127.32147 141.43169 127.43054 141.31114 127.52239 141.21929 L 128.26866 140.4271 L 128.92882 139.70953 L 129.6636 141.46039 C 129.6923 141.54076 129.70379 141.5465 129.70379 141.56372 C 129.70379 141.62113 129.56028 141.74168 129.27899 141.77038 C 129.19862 141.78186 129.12974 141.7876 129.12974 141.9139 C 129.12974 142 129.2101 142 129.2388 142 C 129.44546 142 129.95637 141.97704 130.16303 141.97704 C 130.34673 141.97704 130.79449 142 130.97819 142 C 131.02411 142 131.11596 142 131.11596 141.86223 C 131.11596 141.77038 131.04133 141.77038 130.98393 141.77038 C 130.49024 141.76464 130.47876 141.74168 130.35247 141.44891 C 130.06544 140.77153 129.5775 139.62916 129.41102 139.18714 C 129.9047 138.67623 130.67394 137.80367 130.9093 137.60276 C 131.1217 137.4248 131.39724 137.25258 131.83927 137.22962 C 131.93685 137.21814 132 137.21814 132 137.08037 C 132 137.07463 132 137 131.90241 137 C 131.68427 137 131.44317 137.02296 131.21929 137.02296 C 130.94374 137.02296 130.6682 137 130.40413 137 C 130.35821 137 130.26636 137 130.26636 137.14925 C 130.26636 137.20092 130.3008 137.21814 130.35247 137.22962 C 130.42135 137.23536 130.64524 137.25258 130.64524 137.4535 C 130.64524 137.55683 130.56487 137.65442 130.50746 137.71757 L 129.31917 138.99196" fill="#ff2600"/>
            </g>
          </g>
        </g>
        <g id="Group_120">
          <g id="Group_121">
            <title>glyph-0-0</title>
            <g id="Graphic_122">
              <path d="M 213.78875 142.83812 L 213.89208 142.73479 C 214.11022 142.5109 214.35132 142.26406 214.85075 142.22962 C 214.93111 142.21814 215 142.21814 215 142.0861 C 215 142.0287 214.95982 142 214.9024 142 C 214.71297 142 214.50057 142.02296 214.29966 142.02296 C 214.05855 142.02296 213.80597 142 213.5706 142 C 213.52468 142 213.43284 142 213.43284 142.13777 C 213.43284 142.21814 213.50172 142.22962 213.5419 142.22962 C 213.59357 142.22962 213.80597 142.2411 213.80597 142.3961 C 213.80597 142.52239 213.63375 142.71183 213.60505 142.74627 L 211.90586 144.70379 L 211.10218 142.52813 C 211.062 142.4248 211.062 142.41332 211.062 142.40184 C 211.062 142.22962 211.4179 142.22962 211.49254 142.22962 C 211.59587 142.22962 211.66475 142.22962 211.66475 142.08037 C 211.66475 142 211.57865 142 211.55568 142 C 211.35476 142 210.83812 142.02296 210.6372 142.02296 C 210.4535 142.02296 210 142 209.8163 142 C 209.77038 142 209.67853 142 209.67853 142.14925 C 209.67853 142.22962 209.74742 142.22962 209.845 142.22962 C 210.28129 142.22962 210.31573 142.29277 210.37887 142.47646 L 211.28014 144.88749 C 211.28588 144.9047 211.30884 144.98507 211.30884 145.00804 C 211.30884 145.031 211.01607 146.2078 210.98163 146.33984 C 210.88404 146.74168 210.8783 146.76464 210.29277 146.77038 C 210.14925 146.77038 210.09185 146.77038 210.09185 146.91963 C 210.09185 147 210.1837 147 210.19518 147 C 210.40184 147 210.91274 146.97704 211.1194 146.97704 C 211.32032 146.97704 211.84845 147 212.0551 147 C 212.10677 147 212.19288 147 212.19288 146.85649 C 212.19288 146.77038 212.12974 146.77038 211.99196 146.77038 C 211.97474 146.77038 211.83697 146.77038 211.71068 146.7589 C 211.55568 146.74168 211.5155 146.7302 211.5155 146.64409 C 211.5155 146.59242 211.57865 146.3341 211.6131 146.1791 L 211.8714 145.14581 C 211.90586 145.00804 211.91734 144.98507 211.97474 144.92193 L 213.78875 142.83812" fill="#ff2600"/>
            </g>
          </g>
        </g>
        <g id="Group_117">
          <g id="Group_118">
            <title>glyph-0-0</title>
            <g id="Graphic_119">
              <path d="M 181.97245 110.21355 C 181.97933 110.1791 182 110.13088 182 110.08266 C 182 110 181.95178 110 181.77956 110 L 178.07349 110 C 177.85994 110 177.85305 110.00689 177.79794 110.1791 L 177.31574 111.7566 C 177.30196 111.80482 177.28818 111.85993 177.28818 111.8806 C 177.28818 111.88749 177.28818 111.97704 177.3984 111.97704 C 177.47418 111.97704 177.49484 111.91504 177.50862 111.88749 C 177.84616 110.85419 178.3008 110.27555 179.67165 110.27555 L 181.10448 110.27555 L 176.1929 115.76579 C 176.1929 115.77268 176.15845 115.89667 176.15845 115.92423 C 176.15845 116 176.22045 116 176.37889 116 L 180.19518 116 C 180.40873 116 180.41562 115.99311 180.47073 115.82778 L 181.0907 113.88519 C 181.10448 113.85075 181.13203 113.78875 181.13203 113.7543 C 181.13203 113.70608 181.0907 113.65786 181.01493 113.65786 C 180.93915 113.65786 180.92538 113.69231 180.86338 113.87141 C 180.47761 115.07003 180.0574 115.70379 178.56258 115.70379 L 177.06086 115.70379 L 181.97245 110.21355" fill="#ff2600"/>
            </g>
          </g>
        </g>
      </g>
      <g id="Line_42">
        <line x1="165.32502" y1="148.47427" x2="124.37924" y2="142.90691" marker-end="url(#FilledArrow_Marker_5)" stroke="#ff2600" stroke-opacity=".8" stroke-linecap="round" stroke-linejoin="round" stroke-width="1"/>
      </g>
      <g id="Line_43">
        <line x1="165.32502" y1="148.47427" x2="209.33068" y2="148.9532" marker-end="url(#FilledArrow_Marker_6)" stroke="#ff2600" stroke-linecap="round" stroke-linejoin="round" stroke-width="1"/>
      </g>
      <g id="Line_44">
        <line x1="165.32502" y1="148.47427" x2="173.95134" y2="114.17017" marker-end="url(#FilledArrow_Marker_6)" stroke="#ff2600" stroke-linecap="round" stroke-linejoin="round" stroke-width="1"/>
      </g>
      <g id="Group_222">
        <title>群组</title>
        <g id="Group_219">
          <g id="Group_220">
            <title>glyph-0-0</title>
            <g id="Graphic_221">
              <path d="M 168.26536 152.79739 C 168.26536 152.55686 168.42222 152.17255 169.07582 152.13072 C 169.10719 152.12549 169.13072 152.10196 169.13072 152.06536 C 169.13072 152 169.08366 152 169.01569 152 C 168.417 152 167.87059 152.30588 167.86536 152.75033 L 167.86536 154.11765 C 167.86536 154.35033 167.86536 154.5438 167.62484 154.74248 C 167.41569 154.91503 167.18562 154.9281 167.0549 154.93333 C 167.02353 154.93856 167 154.9621 167 154.9987 C 167 155.05882 167.0366 155.05882 167.09673 155.06405 C 167.4915 155.0902 167.7817 155.30458 167.84706 155.6 C 167.86536 155.66536 167.86536 155.67843 167.86536 155.89281 L 167.86536 157.08235 C 167.86536 157.33333 167.86536 157.52418 168.15294 157.75425 C 168.38562 157.93464 168.783 158 169.01569 158 C 169.08366 158 169.13072 158 169.13072 157.93464 C 169.13072 157.87451 169.09412 157.87451 169.03399 157.86667 C 168.65752 157.84314 168.3621 157.65229 168.28366 157.3464 C 168.26536 157.2915 168.26536 157.27843 168.26536 157.06405 L 168.26536 155.80392 C 168.26536 155.5268 168.2183 155.42484 168.02745 155.23399 C 167.89935 155.1085 167.7268 155.04837 167.55948 154.9987 C 168.05098 154.86013 168.26536 154.58562 168.26536 154.2379 L 168.26536 152.79739" fill="#ff2600"/>
            </g>
          </g>
        </g>
        <g id="Group_216">
          <g id="Group_217">
            <title>glyph-1-0</title>
            <g id="Graphic_218">
              <path d="M 170.8532 154.09412 L 170.8532 152.33464 L 169.79177 152.38431 L 169.79177 152.66405 C 170.16301 152.66405 170.20484 152.66405 170.20484 152.89935 L 170.20484 156.49935 L 170.4872 156.49935 L 170.78262 156.1621 C 170.82968 156.21176 171.1225 156.53595 171.65844 156.53595 C 172.55256 156.53595 173.16955 155.99477 173.16955 155.16078 C 173.16955 154.3634 172.60484 153.7987 171.73426 153.7987 C 171.29765 153.7987 170.997 153.97386 170.8532 154.09412 M 170.88981 155.90588 L 170.88981 154.4 C 171.0519 154.18824 171.33948 154.01569 171.6689 154.01569 C 172.40092 154.01569 172.40092 154.74248 172.40092 155.16078 C 172.40092 155.44314 172.40092 155.77255 172.24667 156.00784 C 172.07151 156.2536 171.79439 156.31895 171.60354 156.31895 C 171.18262 156.31895 170.94994 155.99477 170.88981 155.90588" fill="#ff2600"/>
            </g>
          </g>
        </g>
        <g id="Group_213">
          <g id="Group_214">
            <title>glyph-2-0</title>
            <g id="Graphic_215">
              <path d="M 174.81006 154.72797 C 174.81006 154.61555 174.80222 154.61032 174.68457 154.61032 C 174.4153 154.87437 174.0336 154.8796 173.86104 154.8796 L 173.86104 155.03124 C 173.963 155.03124 174.24013 155.03124 174.4702 154.91359 L 174.4702 157.05477 C 174.4702 157.19333 174.4702 157.24823 174.04928 157.24823 L 173.8898 157.24823 L 173.8898 157.39986 C 173.96562 157.39464 174.48326 157.38418 174.63751 157.38418 C 174.76823 157.38418 175.29895 157.39464 175.39045 157.39986 L 175.39045 157.24823 L 175.23098 157.24823 C 174.81006 157.24823 174.81006 157.19333 174.81006 157.05477 L 174.81006 154.72797" fill="#ff2600"/>
            </g>
          </g>
        </g>
        <g id="Group_210">
          <g id="Group_211">
            <title>glyph-0-1</title>
            <g id="Graphic_212">
              <path d="M 177.39217 157.20261 C 177.39217 157.44052 177.23531 157.82484 176.58172 157.86667 C 176.55034 157.87451 176.52681 157.89804 176.52681 157.93464 C 176.52681 158 176.59217 158 176.64708 158 C 177.23008 158 177.78694 157.70458 177.79217 157.24967 L 177.79217 155.88235 C 177.79217 155.64706 177.79217 155.4562 178.0327 155.25752 C 178.24446 155.08235 178.47191 155.0719 178.60263 155.06405 C 178.634 155.05882 178.65753 155.0353 178.65753 154.9987 C 178.65753 154.93856 178.62093 154.93856 178.5608 154.93333 C 178.16603 154.9098 177.87845 154.69281 177.81047 154.4 C 177.79217 154.33464 177.79217 154.32157 177.79217 154.10458 L 177.79217 152.91765 C 177.79217 152.66405 177.79217 152.4732 177.5046 152.24575 C 177.26668 152.06013 176.851 152 176.64708 152 C 176.59217 152 176.52681 152 176.52681 152.06536 C 176.52681 152.12549 176.56342 152.12549 176.62355 152.13072 C 177.00263 152.15425 177.29544 152.34771 177.37387 152.6536 C 177.39217 152.7085 177.39217 152.71895 177.39217 152.93595 L 177.39217 154.19608 C 177.39217 154.47059 177.43923 154.57255 177.6327 154.76601 C 177.75819 154.8915 177.93074 154.95163 178.10067 154.9987 C 177.60655 155.13725 177.39217 155.41438 177.39217 155.7621 L 177.39217 157.20261" fill="#ff2600"/>
            </g>
          </g>
        </g>
      </g>
    </g>
  </g>
</svg>
