<?xml version="1.0" encoding="UTF-8" standalone="no"?>
<!DOCTYPE svg PUBLIC "-//W3C//DTD SVG 1.1//EN" "http://www.w3.org/Graphics/SVG/1.1/DTD/svg11.dtd">
<svg version="1.1" xmlns:dc="http://purl.org/dc/elements/1.1/" xmlns:xl="http://www.w3.org/1999/xlink" xmlns="http://www.w3.org/2000/svg" viewBox="82 97 153 152" width="153" height="152">
  <defs>
    <filter id="Shadow" filterUnits="userSpaceOnUse" x="66.7" y="81.8">
      <feGaussianBlur in="SourceAlpha" result="blur" stdDeviation="1.308"/>
      <feOffset in="blur" result="offset" dx="0" dy="2"/>
      <feFlood flood-color="black" flood-opacity=".5" result="flood"/>
      <feComposite in="flood" in2="offset" operator="in"/>
    </filter>
    <marker orient="auto" overflow="visible" markerUnits="strokeWidth" id="FilledArrow_Marker" stroke-linejoin="miter" stroke-miterlimit="10" viewBox="-1 -2 4 4" markerWidth="4" markerHeight="4" color="#0432ff">
      <g>
        <path d="M 2 0 L 0 -.75 L 0 .75 Z" fill="currentColor" stroke="currentColor" stroke-width="1"/>
      </g>
    </marker>
    <marker orient="auto" overflow="visible" markerUnits="strokeWidth" id="FilledArrow_Marker_2" stroke-linejoin="miter" stroke-miterlimit="10" viewBox="-1 -2 4 4" markerWidth="4" markerHeight="4" color="#009051">
      <g>
        <path d="M 2 0 L 0 -.75 L 0 .75 Z" fill="currentColor" stroke="currentColor" stroke-width="1"/>
      </g>
    </marker>
  </defs>
  <g id="版面_" stroke-dasharray="none" stroke-opacity="1" stroke="none" fill="none" fill-opacity="1">
    <title>飞轮</title>
    <rect fill="white" x="82" y="97" width="153" height="152"/>
    <g id="版面__偏移状态">
      <title>偏移状态</title>
      <g id="Line_11_shadow" filter="url(#Shadow)">
        <line x1="165.32502" y1="148.47427" x2="180.3321" y2="138.86266" stroke="black" stroke-linecap="round" stroke-linejoin="round" stroke-width="1"/>
      </g>
      <g id="Line_12_shadow" filter="url(#Shadow)">
        <line x1="165.32502" y1="148.47427" x2="147.5002" y2="145.96916" stroke="black" stroke-linecap="round" stroke-linejoin="round" stroke-width="1"/>
      </g>
      <g id="Line_14_shadow" filter="url(#Shadow)">
        <line x1="152.84754" y1="242.5811" x2="165.32502" y2="148.47427" stroke="#929292" stroke-linecap="round" stroke-linejoin="round" stroke-width="1"/>
      </g>
      <g id="Line_8">
        <line x1="152.84754" y1="242.5811" x2="153" y2="116" stroke="#666" stroke-linecap="round" stroke-linejoin="round" stroke-dasharray="2.0,2.0" stroke-width=".5"/>
      </g>
      <g id="Group_9">
        <g id="Line_14">
          <line x1="152.84754" y1="242.5811" x2="165.32502" y2="148.47427" stroke="#929292" stroke-linecap="round" stroke-linejoin="round" stroke-width="1"/>
        </g>
        <g id="Graphic_13">
          <path d="M 208.19224 116.27767 C 213.16044 125.2575 211.30993 138.42455 204.05902 145.6871 C 196.80813 152.9497 186.90265 151.55757 181.9345 142.5777 C 176.9663 133.59787 178.8168 120.43083 186.06772 113.16827 C 193.3186 105.90568 203.22409 107.2978 208.19224 116.27767" fill="white"/>
          <path d="M 208.19224 116.27767 C 213.16044 125.2575 211.30993 138.42455 204.05902 145.6871 C 196.80813 152.9497 186.90265 151.55757 181.9345 142.5777 C 176.9663 133.59787 178.8168 120.43083 186.06772 113.16827 C 193.3186 105.90568 203.22409 107.2978 208.19224 116.27767" stroke="black" stroke-linecap="round" stroke-linejoin="round" stroke-width="1"/>
        </g>
        <g id="Line_12">
          <line x1="165.32502" y1="148.47427" x2="147.5002" y2="145.96916" stroke="black" stroke-linecap="round" stroke-linejoin="round" stroke-width="1"/>
        </g>
        <g id="Line_11">
          <line x1="165.32502" y1="148.47427" x2="180.3321" y2="138.86266" stroke="black" stroke-linecap="round" stroke-linejoin="round" stroke-width="1"/>
        </g>
        <g id="Graphic_10">
          <path d="M 144.98465 130.62046 C 149.95284 139.6003 148.10234 152.76734 140.85143 160.02989 C 133.60054 167.29249 123.69506 165.90036 118.7269 156.92049 C 113.75871 147.94066 115.60922 134.77361 122.86013 127.51106 C 130.11101 120.24846 140.0165 121.64059 144.98465 130.62046" fill="white"/>
          <path d="M 144.98465 130.62046 C 149.95284 139.6003 148.10234 152.76734 140.85143 160.02989 C 133.60054 167.29249 123.69506 165.90036 118.7269 156.92049 C 113.75871 147.94066 115.60922 134.77361 122.86013 127.51106 C 130.11101 120.24846 140.0165 121.64059 144.98465 130.62046" stroke="black" stroke-linecap="round" stroke-linejoin="round" stroke-width="1"/>
        </g>
      </g>
      <g id="Line_15">
        <line x1="234" y1="243" x2="83" y2="242.92752" stroke="#00aeef" stroke-linecap="square" stroke-linejoin="bevel" stroke-dasharray="8.0,8.0" stroke-width="2"/>
      </g>
    </g>
    <g id="版面__F{w1}">
      <title>F{w1}</title>
      <g id="Group_47">
        <g id="Group_54">
          <g id="Group_55">
            <title>glyph-0-0</title>
            <g id="Graphic_56">
              <path d="M 111.31917 135.99196 L 110.70494 134.53387 C 110.68197 134.47646 110.6705 134.44776 110.6705 134.44202 C 110.6705 134.3961 110.79679 134.25832 111.10103 134.22962 C 111.17566 134.21814 111.25029 134.2124 111.25029 134.0861 C 111.25029 134 111.15844 134 111.13548 134 C 110.83697 134 110.52124 134.02296 110.21699 134.02296 C 110.0333 134.02296 109.57979 134 109.3961 134 C 109.35017 134 109.26406 134 109.26406 134.14925 C 109.26406 134.22962 109.33869 134.22962 109.43054 134.22962 C 109.87256 134.22962 109.91848 134.2985 109.98163 134.46498 L 110.84271 136.50287 L 109.29851 138.16762 L 109.20666 138.24799 C 108.845 138.6326 108.50057 138.75316 108.12744 138.77038 C 108.03559 138.78186 107.9667 138.78186 107.9667 138.91963 C 107.9667 138.92537 107.9667 139 108.0643 139 C 108.28243 139 108.52354 138.97704 108.75316 138.97704 C 109.02296 138.97704 109.30999 139 109.57405 139 C 109.61424 139 109.70608 139 109.70608 138.85649 C 109.70608 138.78186 109.63146 138.77038 109.61424 138.77038 C 109.55109 138.76464 109.32147 138.75316 109.32147 138.5465 C 109.32147 138.43169 109.43054 138.31114 109.52239 138.21929 L 110.26866 137.4271 L 110.92882 136.70953 L 111.6636 138.46039 C 111.69231 138.54076 111.70379 138.5465 111.70379 138.56372 C 111.70379 138.62113 111.56028 138.74168 111.27899 138.77038 C 111.19862 138.78186 111.12974 138.7876 111.12974 138.9139 C 111.12974 139 111.2101 139 111.2388 139 C 111.44546 139 111.95637 138.97704 112.16303 138.97704 C 112.34673 138.97704 112.79449 139 112.97819 139 C 113.02411 139 113.11596 139 113.11596 138.86223 C 113.11596 138.77038 113.04133 138.77038 112.98393 138.77038 C 112.49024 138.76464 112.47876 138.74168 112.35247 138.44891 C 112.06544 137.77153 111.5775 136.62916 111.41102 136.18714 C 111.90471 135.67623 112.67394 134.80367 112.9093 134.60276 C 113.1217 134.4248 113.39724 134.25258 113.83927 134.22962 C 113.93685 134.21814 114 134.21814 114 134.08037 C 114 134.07463 114 134 113.90241 134 C 113.68427 134 113.44317 134.02296 113.21929 134.02296 C 112.94374 134.02296 112.6682 134 112.40413 134 C 112.35821 134 112.26636 134 112.26636 134.14925 C 112.26636 134.20092 112.3008 134.21814 112.35247 134.22962 C 112.42135 134.23536 112.64524 134.25258 112.64524 134.4535 C 112.64524 134.55683 112.56487 134.65442 112.50746 134.71757 L 111.31917 135.99196" fill="#0432ff"/>
            </g>
          </g>
        </g>
        <g id="Group_51">
          <g id="Group_52">
            <title>glyph-0-0</title>
            <g id="Graphic_53">
              <path d="M 161.11022 123.83812 L 161.21355 123.73479 C 161.43169 123.5109 161.67279 123.26406 162.17222 123.22962 C 162.25258 123.21814 162.32147 123.21814 162.32147 123.08611 C 162.32147 123.0287 162.28129 123 162.22388 123 C 162.03444 123 161.82204 123.02296 161.62113 123.02296 C 161.38002 123.02296 161.12744 123 160.89208 123 C 160.84615 123 160.7543 123 160.7543 123.13777 C 160.7543 123.21814 160.8232 123.22962 160.86338 123.22962 C 160.91504 123.22962 161.12744 123.2411 161.12744 123.3961 C 161.12744 123.52239 160.95522 123.71183 160.92652 123.74627 L 159.22732 125.70379 L 158.42365 123.52813 C 158.38347 123.4248 158.38347 123.41332 158.38347 123.40184 C 158.38347 123.22962 158.73938 123.22962 158.814 123.22962 C 158.91734 123.22962 158.98622 123.22962 158.98622 123.08037 C 158.98622 123 158.90011 123 158.87715 123 C 158.67623 123 158.15959 123.02296 157.95867 123.02296 C 157.77497 123.02296 157.32147 123 157.13777 123 C 157.09185 123 157 123 157 123.14925 C 157 123.22962 157.06889 123.22962 157.16648 123.22962 C 157.60276 123.22962 157.6372 123.29277 157.70034 123.47646 L 158.6016 125.88749 C 158.60735 125.9047 158.63031 125.98507 158.63031 126.00804 C 158.63031 126.031 158.33754 127.2078 158.3031 127.33984 C 158.20551 127.74168 158.19977 127.76464 157.61424 127.77038 C 157.47072 127.77038 157.41332 127.77038 157.41332 127.91963 C 157.41332 128 157.50517 128 157.51665 128 C 157.7233 128 158.23421 127.97704 158.44087 127.97704 C 158.6418 127.97704 159.16992 128 159.37658 128 C 159.42824 128 159.51435 128 159.51435 127.85649 C 159.51435 127.77038 159.4512 127.77038 159.31343 127.77038 C 159.29621 127.77038 159.15844 127.77038 159.03215 127.7589 C 158.87715 127.74168 158.83697 127.7302 158.83697 127.64409 C 158.83697 127.59242 158.90011 127.3341 158.93456 127.1791 L 159.19288 126.14581 C 159.22732 126.00804 159.2388 125.98507 159.29621 125.92193 L 161.11022 123.83812" fill="#0432ff"/>
            </g>
          </g>
        </g>
        <g id="Group_48">
          <g id="Group_49">
            <title>glyph-0-0</title>
            <g id="Graphic_50">
              <path d="M 140.814 108.21355 C 140.82088 108.1791 140.84155 108.13088 140.84155 108.08266 C 140.84155 108 140.79333 108 140.62111 108 L 136.91504 108 C 136.70149 108 136.6946 108.00689 136.63949 108.1791 L 136.15729 109.7566 C 136.14351 109.80482 136.12973 109.85993 136.12973 109.8806 C 136.12973 109.88749 136.12973 109.97704 136.23995 109.97704 C 136.31573 109.97704 136.3364 109.91504 136.35017 109.88749 C 136.68771 108.85419 137.14236 108.27555 138.5132 108.27555 L 139.94603 108.27555 L 135.03444 113.76579 C 135.03444 113.77268 135 113.89667 135 113.92423 C 135 114 135.062 114 135.22044 114 L 139.03673 114 C 139.25028 114 139.25717 113.99311 139.31228 113.82778 L 139.93225 111.88519 C 139.94603 111.85075 139.97358 111.78875 139.97358 111.7543 C 139.97358 111.70608 139.93225 111.65786 139.85648 111.65786 C 139.7807 111.65786 139.76693 111.69231 139.70493 111.87141 C 139.31917 113.07003 138.89896 113.70379 137.40413 113.70379 L 135.90241 113.70379 L 140.814 108.21355" fill="#0432ff"/>
            </g>
          </g>
        </g>
      </g>
      <g id="Line_67">
        <line x1="131.85578" y1="143.77047" x2="106.52999" y2="140.46125" marker-end="url(#FilledArrow_Marker)" stroke="#0432ff" stroke-linecap="round" stroke-linejoin="round" stroke-width=".9"/>
      </g>
      <g id="Line_68">
        <line x1="131.85578" y1="143.77047" x2="160.19479" y2="130.5089" marker-end="url(#FilledArrow_Marker)" stroke="#0432ff" stroke-linecap="round" stroke-linejoin="round" stroke-width=".9"/>
      </g>
      <g id="Line_69">
        <line x1="131.85578" y1="143.77047" x2="131.0876" y2="112.55892" marker-end="url(#FilledArrow_Marker)" stroke="#0432ff" stroke-linecap="round" stroke-linejoin="round" stroke-width=".9"/>
      </g>
      <g id="Group_167">
        <g id="Group_164">
          <g id="Group_165">
            <title>glyph-0-0</title>
            <g id="Graphic_166">
              <path d="M 122.8034 147.93028 C 122.8034 147.64967 122.9864 147.2013 123.74893 147.1525 C 123.78553 147.1464 123.81298 147.11895 123.81298 147.07625 C 123.81298 147 123.75808 147 123.67878 147 C 122.9803 147 122.34283 147.35686 122.33673 147.87538 L 122.33673 149.47059 C 122.33673 149.74205 122.33673 149.96776 122.05612 150.19956 C 121.81211 150.40087 121.5437 150.41612 121.3912 150.42222 C 121.3546 150.42832 121.32715 150.45577 121.32715 150.49847 C 121.32715 150.56863 121.36985 150.56863 121.44 150.57473 C 121.90057 150.60523 122.23913 150.85534 122.31538 151.2 C 122.33673 151.27625 122.33673 151.2915 122.33673 151.54161 L 122.33673 152.92941 C 122.33673 153.22222 122.33673 153.44488 122.67224 153.71329 C 122.9437 153.92375 123.40732 154 123.67878 154 C 123.75808 154 123.81298 154 123.81298 153.92375 C 123.81298 153.8536 123.77028 153.8536 123.70013 153.84444 C 123.26092 153.817 122.91625 153.59434 122.82475 153.23747 C 122.8034 153.17342 122.8034 153.15817 122.8034 152.90806 L 122.8034 151.4379 C 122.8034 151.1146 122.7485 150.99564 122.52584 150.77298 C 122.37638 150.62658 122.17508 150.55643 121.97987 150.49847 C 122.55329 150.33682 122.8034 150.01656 122.8034 149.6109 L 122.8034 147.93028" fill="#0432ff"/>
            </g>
          </g>
        </g>
        <g id="Group_161">
          <g id="Group_162">
            <title>glyph-1-0</title>
            <g id="Graphic_163">
              <path d="M 129.48199 149.617 C 129.51859 149.52549 129.54604 149.47059 129.9578 149.47059 L 129.9578 149.14118 C 129.7992 149.15643 129.58874 149.16253 129.42098 149.16253 C 129.23188 149.16253 128.90246 149.14728 128.74691 149.14118 L 128.74691 149.47059 C 128.81096 149.47059 129.15562 149.47669 129.15562 149.55294 C 129.15562 149.5743 129.13427 149.617 129.12512 149.63834 L 128.39005 151.42876 L 127.59397 149.47059 L 127.98438 149.47059 L 127.98438 149.14118 C 127.76172 149.14728 127.39876 149.16253 127.1883 149.16253 C 126.89244 149.16253 126.59963 149.14728 126.48678 149.14118 L 126.48678 149.47059 L 126.9016 149.47059 C 127.048 149.82135 127.048 149.83355 127.048 149.8427 C 127.048 149.87015 127.02665 149.9098 127.02055 149.93115 L 126.46543 151.27625 L 125.73035 149.47059 L 126.12382 149.47059 L 126.12382 149.14118 C 125.8371 149.15643 125.5504 149.16253 125.26368 149.16253 C 125.04408 149.16253 124.73602 149.14728 124.49811 149.14118 L 124.49811 149.47059 L 124.91292 149.47059 L 125.98351 152.08758 C 126.03231 152.20654 126.05976 152.27669 126.23667 152.27669 C 126.41053 152.27669 126.43798 152.20654 126.48678 152.08758 L 127.22796 150.27582 L 127.97218 152.08758 C 128.02098 152.20654 128.04843 152.27669 128.22229 152.27669 C 128.3992 152.27669 128.42665 152.20654 128.47545 152.08758 L 129.48199 149.617" fill="#0432ff"/>
            </g>
          </g>
        </g>
        <g id="Group_158">
          <g id="Group_159">
            <title>glyph-2-0</title>
            <g id="Graphic_160">
              <path d="M 131.77972 150.18263 C 131.77972 150.05148 131.77057 150.04538 131.63332 150.04538 C 131.31916 150.35344 130.87384 150.35954 130.67253 150.35954 L 130.67253 150.53644 C 130.79149 150.53644 131.1148 150.53644 131.38321 150.39919 L 131.38321 152.89723 C 131.38321 153.05888 131.38321 153.12294 130.89214 153.12294 L 130.70608 153.12294 L 130.70608 153.29984 C 130.79454 153.29374 131.39846 153.28154 131.57842 153.28154 C 131.73092 153.28154 132.3501 153.29374 132.45685 153.29984 L 132.45685 153.12294 L 132.27079 153.12294 C 131.77972 153.12294 131.77972 153.05888 131.77972 152.89723 L 131.77972 150.18263" fill="#0432ff"/>
            </g>
          </g>
        </g>
        <g id="Group_155">
          <g id="Group_156">
            <title>glyph-0-1</title>
            <g id="Graphic_157">
              <path d="M 134.79289 153.06972 C 134.79289 153.34728 134.60988 153.79564 133.84736 153.84444 C 133.81075 153.8536 133.7833 153.88105 133.7833 153.92375 C 133.7833 154 133.85956 154 133.9236 154 C 134.60378 154 135.25346 153.65534 135.25956 153.12462 L 135.25956 151.52941 C 135.25956 151.2549 135.25956 151.03224 135.54017 150.80044 C 135.78722 150.59608 136.05258 150.58388 136.20509 150.57473 C 136.24169 150.56863 136.26914 150.54118 136.26914 150.49847 C 136.26914 150.42832 136.22644 150.42832 136.15629 150.42222 C 135.69572 150.39477 135.36021 150.14161 135.2809 149.8 C 135.25956 149.72375 135.25956 149.7085 135.25956 149.45534 L 135.25956 148.07059 C 135.25956 147.77473 135.25956 147.55207 134.92404 147.28671 C 134.64648 147.07015 134.16152 147 133.9236 147 C 133.85956 147 133.7833 147 133.7833 147.07625 C 133.7833 147.1464 133.826 147.1464 133.89616 147.1525 C 134.33842 147.17996 134.68003 147.40566 134.77154 147.76253 C 134.79289 147.82658 134.79289 147.83878 134.79289 148.09194 L 134.79289 149.5621 C 134.79289 149.88235 134.84779 150.0013 135.0735 150.22702 C 135.2199 150.37342 135.42121 150.44357 135.61947 150.49847 C 135.043 150.66013 134.79289 150.98344 134.79289 151.3891 L 134.79289 153.06972" fill="#0432ff"/>
            </g>
          </g>
        </g>
      </g>
    </g>
    <g id="版面__F{w2}">
      <title>F{w2}</title>
      <g id="Group_142">
        <g id="Group_149">
          <g id="Group_150">
            <title>glyph-0-0</title>
            <g id="Graphic_151">
              <path d="M 228.35247 126.99196 L 227.73823 125.53387 C 227.71527 125.47646 227.7038 125.44776 227.7038 125.44202 C 227.7038 125.3961 227.83008 125.25832 228.13433 125.22962 C 228.20896 125.21814 228.28358 125.2124 228.28358 125.08611 C 228.28358 125 228.19173 125 228.16877 125 C 227.87026 125 227.55454 125.02296 227.2503 125.02296 C 227.0666 125.02296 226.6131 125 226.4294 125 C 226.38347 125 226.29736 125 226.29736 125.14925 C 226.29736 125.22962 226.37199 125.22962 226.46383 125.22962 C 226.90586 125.22962 226.95178 125.2985 227.01493 125.46498 L 227.876 127.50287 L 226.3318 129.16762 L 226.23995 129.24799 C 225.8783 129.6326 225.53387 129.75316 225.16073 129.77038 C 225.06889 129.78186 225 129.78186 225 129.91963 C 225 129.92537 225 130 225.0976 130 C 225.31573 130 225.55683 129.97704 225.78645 129.97704 C 226.05626 129.97704 226.34328 130 226.60735 130 C 226.64753 130 226.73938 130 226.73938 129.85649 C 226.73938 129.78186 226.66475 129.77038 226.64753 129.77038 C 226.58439 129.76464 226.35476 129.75316 226.35476 129.5465 C 226.35476 129.43169 226.46383 129.31114 226.55568 129.21929 L 227.30195 128.4271 L 227.9621 127.70953 L 228.6969 129.46039 C 228.7256 129.54076 228.73708 129.5465 228.73708 129.56372 C 228.73708 129.62113 228.59357 129.74168 228.31228 129.77038 C 228.23192 129.78186 228.16303 129.7876 228.16303 129.91389 C 228.16303 130 228.2434 130 228.2721 130 C 228.47876 130 228.98967 129.97704 229.19633 129.97704 C 229.38002 129.97704 229.82778 130 230.01148 130 C 230.0574 130 230.14925 130 230.14925 129.86223 C 230.14925 129.77038 230.07463 129.77038 230.01722 129.77038 C 229.52354 129.76464 229.51206 129.74168 229.38576 129.44891 C 229.09874 128.77153 228.6108 127.62916 228.44432 127.18714 C 228.938 126.67623 229.70723 125.80367 229.9426 125.60276 C 230.155 125.4248 230.43054 125.25258 230.87256 125.22962 C 230.97015 125.21814 231.0333 125.21814 231.0333 125.08037 C 231.0333 125.07463 231.0333 125 230.9357 125 C 230.71757 125 230.47646 125.02296 230.25258 125.02296 C 229.97704 125.02296 229.7015 125 229.43743 125 C 229.3915 125 229.29966 125 229.29966 125.14925 C 229.29966 125.20092 229.3341 125.21814 229.38576 125.22962 C 229.45465 125.23536 229.67853 125.25258 229.67853 125.4535 C 229.67853 125.55683 229.59816 125.65442 229.54076 125.71757 L 228.35247 126.99196" fill="#009051"/>
            </g>
          </g>
        </g>
        <g id="Group_146">
          <g id="Group_147">
            <title>glyph-0-0</title>
            <g id="Graphic_148">
              <path d="M 217.78875 104.83812 L 217.89208 104.73479 C 218.11022 104.51091 218.35132 104.26406 218.85075 104.22962 C 218.93111 104.21814 219 104.21814 219 104.08611 C 219 104.0287 218.95982 104 218.9024 104 C 218.71297 104 218.50057 104.02296 218.29966 104.02296 C 218.05855 104.02296 217.80597 104 217.5706 104 C 217.52468 104 217.43284 104 217.43284 104.13777 C 217.43284 104.21814 217.50172 104.22962 217.5419 104.22962 C 217.59357 104.22962 217.80597 104.2411 217.80597 104.3961 C 217.80597 104.52239 217.63375 104.71183 217.60505 104.74627 L 215.90586 106.70379 L 215.10218 104.52813 C 215.062 104.4248 215.062 104.41332 215.062 104.40184 C 215.062 104.22962 215.4179 104.22962 215.49254 104.22962 C 215.59587 104.22962 215.66475 104.22962 215.66475 104.08037 C 215.66475 104 215.57865 104 215.55568 104 C 215.35476 104 214.83812 104.02296 214.6372 104.02296 C 214.4535 104.02296 214 104 213.8163 104 C 213.77038 104 213.67853 104 213.67853 104.14925 C 213.67853 104.22962 213.74742 104.22962 213.845 104.22962 C 214.28129 104.22962 214.31573 104.29277 214.37887 104.47646 L 215.28014 106.88749 C 215.28588 106.90471 215.30884 106.98507 215.30884 107.00804 C 215.30884 107.031 215.01607 108.20781 214.98163 108.33984 C 214.88404 108.74168 214.8783 108.76464 214.29277 108.77038 C 214.14925 108.77038 214.09185 108.77038 214.09185 108.91963 C 214.09185 109 214.1837 109 214.19518 109 C 214.40184 109 214.91274 108.97704 215.1194 108.97704 C 215.32032 108.97704 215.84845 109 216.0551 109 C 216.10677 109 216.19288 109 216.19288 108.85649 C 216.19288 108.77038 216.12974 108.77038 215.99196 108.77038 C 215.97474 108.77038 215.83697 108.77038 215.71068 108.7589 C 215.55568 108.74168 215.5155 108.7302 215.5155 108.64409 C 215.5155 108.59242 215.57865 108.3341 215.6131 108.1791 L 215.8714 107.14581 C 215.90586 107.00804 215.91734 106.98507 215.97474 106.92193 L 217.78875 104.83812" fill="#009051"/>
            </g>
          </g>
        </g>
        <g id="Group_143">
          <g id="Group_144">
            <title>glyph-0-0</title>
            <g id="Graphic_145">
              <path d="M 195.814 99.21355 C 195.82088 99.1791 195.84155 99.13088 195.84155 99.08266 C 195.84155 99 195.79333 99 195.62111 99 L 191.91504 99 C 191.7015 99 191.6946 99.00689 191.6395 99.1791 L 191.15729 100.7566 C 191.1435 100.80482 191.12973 100.85993 191.12973 100.8806 C 191.12973 100.88749 191.12973 100.97704 191.23995 100.97704 C 191.31573 100.97704 191.3364 100.91504 191.35017 100.88749 C 191.68771 99.85419 192.14236 99.27555 193.5132 99.27555 L 194.94603 99.27555 L 190.03444 104.76579 C 190.03444 104.77268 190 104.89667 190 104.92423 C 190 105 190.062 105 190.22044 105 L 194.03673 105 C 194.25028 105 194.25717 104.99311 194.31228 104.82778 L 194.93225 102.88519 C 194.94603 102.85075 194.97358 102.78875 194.97358 102.7543 C 194.97358 102.70608 194.93225 102.65786 194.85648 102.65786 C 194.7807 102.65786 194.76693 102.69231 194.70493 102.87141 C 194.31917 104.07003 193.89896 104.70379 192.40413 104.70379 L 190.9024 104.70379 L 195.814 99.21355" fill="#009051"/>
            </g>
          </g>
        </g>
      </g>
      <g id="Line_152">
        <line x1="195.06337" y1="129.42769" x2="230.4549" y2="132.67475" marker-end="url(#FilledArrow_Marker_2)" stroke="#009051" stroke-linecap="round" stroke-linejoin="round" stroke-width=".9"/>
      </g>
      <g id="Line_153">
        <line x1="195.06337" y1="129.42769" x2="220.17523" y2="110.16663" marker-end="url(#FilledArrow_Marker_2)" stroke="#009051" stroke-linecap="round" stroke-linejoin="round" stroke-width=".9"/>
      </g>
      <g id="Line_154">
        <line x1="195.06337" y1="129.42769" x2="186.08564" y2="101.39043" marker-end="url(#FilledArrow_Marker_2)" stroke="#009051" stroke-linecap="round" stroke-linejoin="round" stroke-width=".9"/>
      </g>
      <g id="Group_180">
        <g id="Group_177">
          <g id="Group_178">
            <title>glyph-0-0</title>
            <g id="Graphic_179">
              <path d="M 189.47625 133.93028 C 189.47625 133.64967 189.65926 133.2013 190.42179 133.1525 C 190.45839 133.1464 190.48584 133.11895 190.48584 133.07625 C 190.48584 133 190.43094 133 190.35163 133 C 189.65316 133 189.01569 133.35686 189.00959 133.87538 L 189.00959 135.47059 C 189.00959 135.74205 189.00959 135.96776 188.72898 136.19956 C 188.48497 136.40087 188.21656 136.41612 188.06405 136.42222 C 188.02745 136.42832 188 136.45577 188 136.49847 C 188 136.56863 188.0427 136.56863 188.11285 136.57473 C 188.57342 136.60523 188.91198 136.85534 188.98824 137.2 C 189.00959 137.27625 189.00959 137.2915 189.00959 137.54161 L 189.00959 138.92941 C 189.00959 139.22222 189.00959 139.44488 189.3451 139.71329 C 189.61656 139.92375 190.08017 140 190.35163 140 C 190.43094 140 190.48584 140 190.48584 139.92375 C 190.48584 139.8536 190.44314 139.8536 190.37298 139.84444 C 189.93377 139.817 189.5891 139.59434 189.4976 139.23747 C 189.47625 139.17342 189.47625 139.15817 189.47625 138.90806 L 189.47625 137.43791 C 189.47625 137.1146 189.42135 136.99564 189.1987 136.77298 C 189.04924 136.62658 188.84793 136.55643 188.65272 136.49847 C 189.22614 136.33682 189.47625 136.01656 189.47625 135.6109 L 189.47625 133.93028" fill="#009051"/>
            </g>
          </g>
        </g>
        <g id="Group_174">
          <g id="Group_175">
            <title>glyph-1-0</title>
            <g id="Graphic_176">
              <path d="M 196.15484 135.617 C 196.19144 135.52549 196.2189 135.47059 196.63066 135.47059 L 196.63066 135.14118 C 196.47205 135.15643 196.2616 135.16253 196.09384 135.16253 C 195.90473 135.16253 195.57532 135.14728 195.41976 135.14118 L 195.41976 135.47059 C 195.48382 135.47059 195.82848 135.47669 195.82848 135.55294 C 195.82848 135.5743 195.80713 135.617 195.79798 135.63834 L 195.0629 137.42876 L 194.26682 135.47059 L 194.65724 135.47059 L 194.65724 135.14118 C 194.43458 135.14728 194.07162 135.16253 193.86116 135.16253 C 193.5653 135.16253 193.27249 135.14728 193.15963 135.14118 L 193.15963 135.47059 L 193.57445 135.47059 C 193.72085 135.82135 193.72085 135.83355 193.72085 135.8427 C 193.72085 135.87015 193.6995 135.9098 193.6934 135.93115 L 193.13828 137.27625 L 192.4032 135.47059 L 192.79667 135.47059 L 192.79667 135.14118 C 192.50996 135.15643 192.22325 135.16253 191.93654 135.16253 C 191.71693 135.16253 191.40887 135.14728 191.17096 135.14118 L 191.17096 135.47059 L 191.58578 135.47059 L 192.65636 138.08758 C 192.70517 138.20654 192.73262 138.27669 192.90952 138.27669 C 193.08338 138.27669 193.11083 138.20654 193.15963 138.08758 L 193.9008 136.27582 L 194.64504 138.08758 C 194.69384 138.20654 194.72129 138.27669 194.89514 138.27669 C 195.07205 138.27669 195.0995 138.20654 195.1483 138.08758 L 196.15484 135.617" fill="#009051"/>
            </g>
          </g>
        </g>
        <g id="Group_171">
          <g id="Group_172">
            <title>glyph-2-0</title>
            <g id="Graphic_173">
              <path d="M 199.2883 138.40921 L 199.12055 138.40921 C 199.1053 138.51596 199.0565 138.80572 198.99245 138.85453 C 198.9528 138.88198 198.57763 138.88198 198.50748 138.88198 L 197.60465 138.88198 C 198.12012 138.42751 198.29092 138.29026 198.58678 138.05845 C 198.94974 137.77174 199.2883 137.46673 199.2883 137.00006 C 199.2883 136.40834 198.76674 136.04538 198.13842 136.04538 C 197.53144 136.04538 197.11968 136.47239 197.11968 136.9238 C 197.11968 137.17392 197.33014 137.19832 197.37894 137.19832 C 197.4979 137.19832 197.64125 137.11291 197.64125 136.936 C 197.64125 136.8506 197.60465 136.67675 197.35149 136.67675 C 197.504 136.32904 197.83645 136.22228 198.06521 136.22228 C 198.55628 136.22228 198.8125 136.60355 198.8125 137.00006 C 198.8125 137.42707 198.50748 137.76564 198.35192 137.94254 L 197.16848 139.10768 C 197.11968 139.15344 197.11968 139.16259 197.11968 139.29984 L 199.13885 139.29984 L 199.2883 138.40921" fill="#009051"/>
            </g>
          </g>
        </g>
        <g id="Group_168">
          <g id="Group_169">
            <title>glyph-0-1</title>
            <g id="Graphic_170">
              <path d="M 201.46574 139.06972 C 201.46574 139.34728 201.28274 139.79564 200.5202 139.84444 C 200.4836 139.8536 200.45616 139.88105 200.45616 139.92375 C 200.45616 140 200.5324 140 200.59646 140 C 201.27664 140 201.9263 139.65534 201.9324 139.12462 L 201.9324 137.52941 C 201.9324 137.2549 201.9324 137.03224 202.21302 136.80044 C 202.46008 136.59608 202.72544 136.58388 202.87794 136.57473 C 202.91454 136.56863 202.942 136.54118 202.942 136.49847 C 202.942 136.42832 202.8993 136.42832 202.82914 136.42222 C 202.36858 136.39477 202.03306 136.14161 201.95376 135.8 C 201.9324 135.72375 201.9324 135.7085 201.9324 135.45534 L 201.9324 134.07059 C 201.9324 133.77473 201.9324 133.55207 201.5969 133.28671 C 201.31934 133.07015 200.83437 133 200.59646 133 C 200.5324 133 200.45616 133 200.45616 133.07625 C 200.45616 133.1464 200.49886 133.1464 200.569 133.1525 C 201.01128 133.17996 201.3529 133.40566 201.4444 133.76253 C 201.46574 133.82658 201.46574 133.83878 201.46574 134.09194 L 201.46574 135.56209 C 201.46574 135.88235 201.52064 136.0013 201.74635 136.22702 C 201.89276 136.37342 202.09407 136.44357 202.29232 136.49847 C 201.71585 136.66013 201.46574 136.98344 201.46574 137.3891 L 201.46574 139.06972" fill="#009051"/>
            </g>
          </g>
        </g>
      </g>
    </g>
  </g>
</svg>
